<?xml version="1.0" standalone="no"?>
<!DOCTYPE svg PUBLIC "-//W3C//DTD SVG 1.1//EN" "http://www.w3.org/Graphics/SVG/1.1/DTD/svg11.dtd" >
<svg xmlns="http://www.w3.org/2000/svg" xmlns:xlink="http://www.w3.org/1999/xlink" version="1.1">
<metadata>
Created by FontForge 20170731 at Wed Jan  6 19:31:48 2016
 By Aleksey,,,
Copyright (c) 2011 by Omnibus-Type (www.omnibus-type.com) with Reserved Font Name 'Rosario'. Copyright (c) 2013 by Adobe Systems Incorporated. All Rights Reserved.
</metadata>
<defs>
<font id="Rosario-Bold" horiz-adv-x="494" >
  <font-face 
    font-family="Rosario"
    font-weight="700"
    font-stretch="normal"
    units-per-em="1000"
    panose-1="2 0 5 3 6 0 0 2 0 4"
    ascent="779"
    descent="-221"
    x-height="497"
    cap-height="732"
    bbox="-114 -230 1184 968"
    underline-thickness="19"
    underline-position="-147"
    unicode-range="U+000D-FB02"
  />
<missing-glyph horiz-adv-x="230" 
 />
    <glyph glyph-name=".notdef" horiz-adv-x="230" 
 />
    <glyph glyph-name=".null" horiz-adv-x="0" 
 />
    <glyph glyph-name=".null" horiz-adv-x="0" 
 />
    <glyph glyph-name="nonmarkingreturn" unicode="&#xd;" horiz-adv-x="230" 
 />
    <glyph glyph-name="space" unicode=" " horiz-adv-x="230" 
 />
    <glyph glyph-name="exclam" unicode="!" horiz-adv-x="329" 
d="M248 690l-29 -471h-90q-29 474 -29 476q0 30 38 30h71q39 0 39 -35zM226 117q23 -23 23 -55t-22.5 -54.5t-54.5 -22.5t-54.5 22.5t-22.5 54.5t22.5 55t54.5 23t54 -23z" />
    <glyph glyph-name="quotedbl" unicode="&#x22;" horiz-adv-x="367" 
d="M304 559l-36 -110h-22l-36 110v173h94v-173zM157 559l-36 -110h-21q-1 3 -10 30.5t-18 53.5l-9 26v173h94v-173z" />
    <glyph glyph-name="numbersign" unicode="#" horiz-adv-x="640" 
d="M582 425h-114l-18 -128h106v-89h-118l-28 -208h-89l28 208h-94l-28 -208h-89l28 208h-106v89h118l18 128h-110v89h122l29 218h89l-29 -218h94l29 218h89l-29 -218h102v-89zM379 425h-94l-18 -128h94z" />
    <glyph glyph-name="dollar" unicode="$" horiz-adv-x="430" 
d="M393 155q0 -71 -50 -116t-123 -52l-10 -112h-73l32 113q-76 7 -137 41l43 82q68 -40 113 -40q32 0 53.5 16.5t21.5 47.5q0 27 -22.5 44.5t-54.5 29t-64.5 25.5t-55 44.5t-22.5 75.5q0 71 52 111.5t126 44.5l10 114h72l-31 -116q67 -8 110 -29l-42 -84q-44 34 -99 34
q-28 0 -48 -13.5t-20 -39.5q0 -25 22.5 -41t55 -27.5t64.5 -26.5t54.5 -46.5t22.5 -79.5z" />
    <glyph glyph-name="percent" unicode="%" horiz-adv-x="863" 
d="M797 348q45 -57 45 -147t-44.5 -147.5t-132.5 -57.5t-132.5 57.5t-44.5 147.5t44.5 147t132.5 57t132 -57zM640 699l-346 -711h-67l322 657h-199q37 -55 37 -136q0 -90 -45 -147.5t-132 -57.5q-88 0 -132.5 57.5t-44.5 147.5t44.5 147t132.5 57q42 0 74 -14h356zM733 201
q0 125 -68 125t-68 -125q0 -126 68 -126t68 126zM278 509q0 125 -68 125t-68 -125q0 -126 68 -126t68 126z" />
    <glyph glyph-name="ampersand" unicode="&#x26;" horiz-adv-x="679" 
d="M679 0h-74q-50 0 -85 19t-77 60q-88 -91 -198 -91q-91 0 -152.5 53.5t-61.5 143.5q0 118 130 203q-54 74 -54 136q0 71 51.5 118.5t123.5 47.5q69 0 115.5 -36.5t46.5 -103.5q0 -50 -31.5 -88.5t-84.5 -75.5q13 -14 120 -137q32 69 32 132l78 -19q0 -92 -47 -184l6 -7
q43 -48 61 -57t74 -9h27v-105zM338 546q0 28 -16 46t-44 18q-27 0 -46.5 -19t-19.5 -46q0 -41 52 -93q74 47 74 94zM374 149l-152 166q-74 -53 -74 -111q0 -47 31.5 -74t78.5 -27q62 0 116 46z" />
    <glyph glyph-name="quotesingle" unicode="'" horiz-adv-x="226" 
d="M157 559l-36 -110h-21q-1 3 -10 30.5t-18 53.5l-9 26v173h94v-173z" />
    <glyph glyph-name="parenleft" unicode="(" horiz-adv-x="306" 
d="M321 -130l-95 -16q-191 211 -191 444q0 234 191 445l95 -16q-87 -104 -126.5 -203.5t-39.5 -225.5t40 -225.5t126 -202.5z" />
    <glyph glyph-name="parenright" unicode=")" horiz-adv-x="306" 
d="M298 298q0 -233 -191 -444l-95 16q86 103 126 202.5t40 225.5t-39.5 225.5t-126.5 203.5l95 16q191 -211 191 -445z" />
    <glyph glyph-name="asterisk" unicode="*" horiz-adv-x="510" 
d="M458 555l-158 -27l115 -106l-89 -69l-71 141l-71 -138l-86 64l111 111l-153 21l30 107l140 -74l-29 156h111l-25 -156l134 78z" />
    <glyph glyph-name="plus" unicode="+" horiz-adv-x="642" 
d="M565 205h-205v-205h-88v204h-205v88h205v205h88v-204h205v-88z" />
    <glyph glyph-name="comma" unicode="," horiz-adv-x="235" 
d="M183 46q0 -101 -109 -180q-27 27 -39 41q15 14 30.5 36.5t15.5 36.5q0 10 -12 21t-24 27.5t-12 40.5q0 29 20 49.5t49 20.5q37 0 59 -27.5t22 -65.5z" />
    <glyph glyph-name="hyphen" unicode="-" horiz-adv-x="313" 
d="M270 210h-221v95h221v-95z" />
    <glyph glyph-name="period" unicode="." horiz-adv-x="228" 
d="M160 120q23 -23 23 -55t-22.5 -54.5t-54.5 -22.5t-54.5 22.5t-22.5 54.5t22.5 55t54.5 23t54 -23z" />
    <glyph glyph-name="slash" unicode="/" horiz-adv-x="326" 
d="M345 732l-270 -732h-93l269 732h94z" />
    <glyph glyph-name="zero" unicode="0" horiz-adv-x="578" 
d="M549 249q0 -122 -69 -191.5t-191 -69.5t-191 69.5t-69 191.5q0 125 67.5 193t192.5 68q124 0 192 -68t68 -193zM417 249q0 180 -128 180q-129 0 -129 -180q0 -30 2.5 -54t11 -48.5t22 -40.5t37.5 -26.5t56 -10.5q40 0 67 14.5t39.5 42t17 56t4.5 67.5z" />
    <glyph glyph-name="one" unicode="1" horiz-adv-x="383" 
d="M370 0h-334v99h109v279l-109 -29l-21 64l173 85h78v-399h104v-99z" />
    <glyph glyph-name="two" unicode="2" horiz-adv-x="465" 
d="M463 99l-21 -99h-413v54q41 43 117.5 130.5t99.5 112.5q33 35 33 68q0 26 -17 41t-43 15q-58 0 -126 -66l-60 64q103 93 220 93q69 0 119.5 -35.5t50.5 -101.5q0 -62 -55 -119q-26 -27 -166 -157h261z" />
    <glyph glyph-name="three" unicode="3" horiz-adv-x="410" 
d="M385 88q0 -60 -28.5 -110t-74 -82t-103.5 -53.5t-115 -31t-112 -9.5h-15l-14 70q42 1 82 6.5t85 20t78 36t55 57.5t22 82q0 74 -72 74q-33 0 -70 -14l-35 72q56 26 105 76.5t49 103.5q0 42 -37 42q-48 0 -99 -49l-56 56q31 36 84.5 56t104.5 20q59 0 100.5 -25.5
t41.5 -80.5q0 -53 -51 -102t-112 -80q20 2 31 2q70 0 113 -34.5t43 -102.5z" />
    <glyph glyph-name="four" unicode="4" horiz-adv-x="497" 
d="M526 99l-28 -100h-79v-183h-125v183h-292v58l286 441h131v-399h107zM294 99v230l-149 -230h149z" />
    <glyph glyph-name="five" unicode="5" horiz-adv-x="372" 
d="M397 498l-35 -121h-188l-22 -50q176 -98 176 -245q0 -62 -30.5 -115t-80 -88t-106.5 -56.5t-117 -29.5l-22 62q94 28 159 82.5t65 139.5q0 60 -55.5 113.5t-122.5 82.5l102 225h277z" />
    <glyph glyph-name="six" unicode="6" horiz-adv-x="536" 
d="M512 212q0 -96 -70.5 -160t-167.5 -64q-112 0 -181 71.5t-69 184.5q0 139 84 247.5t220 180.5q77 42 141 58l28 -65q-97 -33 -183.5 -111t-130.5 -170q58 37 116 37q93 0 153 -58t60 -151zM273 335q-62 0 -110 -53q-4 -18 -4 -50q0 -61 28 -111t85 -50q52 0 78.5 40.5
t26.5 94.5t-26.5 91.5t-77.5 37.5z" />
    <glyph glyph-name="seven" unicode="7" horiz-adv-x="425" 
d="M428 434l-285 -623h-136l270 575h-288l32 111h407v-63z" />
    <glyph glyph-name="eight" unicode="8" horiz-adv-x="461" 
d="M464 170q0 -88 -65 -135t-156 -47q-88 0 -151.5 48.5t-63.5 133.5q0 22 2.5 40t12.5 36t14.5 28t23 28t23 22.5t29.5 25.5t28 24l-12 11q-28 26 -41.5 39.5t-29.5 36t-22 47.5t-6 57q0 77 60 122t140 45q82 0 136 -43.5t54 -123.5q0 -22 -5 -41t-10 -31.5t-19 -29.5
t-21 -24t-27.5 -26t-27.5 -25l16 -15q31 -29 46 -44.5t35 -42t28.5 -54.5t8.5 -62zM328 564q0 37 -18 63t-54 26q-34 0 -52.5 -25t-18.5 -61q0 -12 4 -24t7 -19.5t14 -20t14 -15.5t18 -17t16 -15l4 4q23 19 33.5 29.5t21.5 31t11 43.5zM329 171q0 16 -5.5 31t-19 31.5
t-21.5 25t-27.5 26t-23.5 21.5q-4 -4 -21 -18t-23 -19t-18 -18.5t-17 -23t-9.5 -24.5t-4.5 -30q0 -45 26.5 -74.5t71.5 -29.5q44 0 68 28.5t24 73.5z" />
    <glyph glyph-name="nine" unicode="9" horiz-adv-x="536" 
d="M512 255q0 -88 -39 -168t-104 -138.5t-144 -100t-163 -62.5l-27 65q101 34 187.5 104t130.5 160q-58 -37 -116 -37q-93 0 -152.5 58t-59.5 151q0 96 70.5 160t167.5 64q112 0 180.5 -71.5t68.5 -184.5zM377 267q0 62 -28 111.5t-85 49.5q-52 0 -78.5 -40.5t-26.5 -94.5
q0 -53 27 -91t78 -38q62 0 110 53q3 26 3 50z" />
    <glyph glyph-name="colon" unicode=":" horiz-adv-x="331" 
d="M220 120q23 -23 23 -55t-22.5 -54.5t-54.5 -22.5t-54.5 22.5t-22.5 54.5t22.5 55t54.5 23t54 -23zM220 409q23 -23 23 -55t-22.5 -54.5t-54.5 -22.5t-54.5 22.5t-22.5 54.5t22.5 55t54.5 23t54 -23z" />
    <glyph glyph-name="semicolon" unicode=";" horiz-adv-x="334" 
d="M221 409q23 -23 23 -55t-22.5 -54.5t-54.5 -22.5t-54.5 22.5t-22.5 54.5t22.5 55t54.5 23t54 -23zM243 46q0 -101 -109 -180q-27 27 -39 41q15 14 30.5 36.5t15.5 36.5q0 10 -12 21t-24 27.5t-12 40.5q0 29 20 49.5t49 20.5q37 0 59 -27.5t22 -65.5z" />
    <glyph glyph-name="less" unicode="&#x3c;" horiz-adv-x="630" 
d="M564 -12l-498 235v52l498 234v-90l-368 -170l368 -173v-88z" />
    <glyph glyph-name="equal" unicode="=" horiz-adv-x="630" 
d="M565 109h-496v88h496v-88zM565 302h-496v88h496v-88z" />
    <glyph glyph-name="greater" unicode="&#x3e;" horiz-adv-x="630" 
d="M564 223l-498 -235v88l368 173l-368 170v90l498 -234v-52z" />
    <glyph glyph-name="question" unicode="?" horiz-adv-x="438" 
d="M403 544q0 -70 -41 -113.5t-111 -73.5q-13 -6 -13 -21v-119h-107v205q53 4 98 34.5t45 80.5q0 41 -31 64.5t-73 23.5q-52 0 -104 -35l-46 88q68 44 163 44q88 0 154 -46.5t66 -131.5zM238 120q23 -23 23 -55t-22.5 -54.5t-54.5 -22.5t-54.5 22.5t-22.5 54.5t22.5 55
t54.5 23t54 -23z" />
    <glyph glyph-name="at" unicode="@" horiz-adv-x="832" 
d="M451 -69l15 -53q-46 -13 -99 -13q-140 0 -231 93.5t-91 233.5q0 79 29 155t80 137.5t129.5 99.5t170.5 38q141 0 237 -84t96 -227q0 -101 -54.5 -180.5t-141.5 -79.5q-77 0 -108 56q-21 -27 -53 -42t-61 -15q-63 0 -95.5 45t-32.5 111q0 82 57 158t148 76q53 0 86 -37
l17 30h47q-38 -237 -38 -271q0 -55 37 -55q56 0 92 62.5t36 141.5q0 118 -77 187.5t-192 69.5q-102 0 -183 -56.5t-121.5 -141.5t-40.5 -178q0 -117 73 -195t185 -78q42 0 84 12zM501 349q-30 29 -61 29q-35 0 -61 -33t-36.5 -70.5t-10.5 -68.5q0 -93 54 -93q27 0 47 20.5
t33 59.5t20.5 73.5t14.5 82.5z" />
    <glyph glyph-name="A" unicode="A" horiz-adv-x="631" 
d="M629 0h-148l-72 210h-216l-75 -210h-116l259 732h109zM376 308q-48 147 -76 250q-34 -125 -73 -250h149z" />
    <glyph glyph-name="B" unicode="B" horiz-adv-x="614" 
d="M586 203q0 -71 -40 -118.5t-97 -66t-126 -18.5h-256v671q0 1 -3.5 15t-7 29t-3.5 17h260q47 0 86.5 -7.5t75.5 -25.5t56.5 -53.5t20.5 -84.5q0 -63 -43 -108t-106 -54q77 -13 130 -66.5t53 -129.5zM407 542q0 46 -27.5 68.5t-74.5 22.5h-100v-187h103q43 0 71 26.5
t28 69.5zM441 219q0 63 -46 95.5t-112 32.5h-78v-248h109q57 0 92 32t35 88z" />
    <glyph glyph-name="C" unicode="C" horiz-adv-x="624" 
d="M612 62q-63 -39 -117.5 -56.5t-124.5 -17.5q-169 0 -259.5 106t-90.5 277q0 163 95 269t256 106q62 0 130 -18t107 -53l-72 -92q-27 30 -72 48t-88 18q-74 0 -122.5 -42t-66.5 -101t-18 -132q0 -48 12.5 -97.5t36.5 -94t66 -72.5t94 -28q93 0 171 75z" />
    <glyph glyph-name="D" unicode="D" horiz-adv-x="699" 
d="M680 365q0 -168 -103 -270q-95 -95 -250 -95h-260v671q0 1 -7.5 29.5t-8.5 31.5h277q165 0 258.5 -100.5t93.5 -266.5zM532 361q0 72 -20 131t-69.5 100t-123.5 41h-114v-534h116q55 0 97 21.5t66 59t36 83t12 98.5z" />
    <glyph glyph-name="E" unicode="E" horiz-adv-x="549" 
d="M512 0h-445v671l-15 61h460v-99h-308v-207h236v-99h-236v-228h308v-99z" />
    <glyph glyph-name="F" unicode="F" horiz-adv-x="510" 
d="M482 633h-276v-207h213v-99h-213v-327h-139v671q0 1 -3.5 15t-7 29t-3.5 17h429v-99z" />
    <glyph glyph-name="G" unicode="G" horiz-adv-x="707" 
d="M668 -1h-71l-34 76q-50 -46 -100 -66t-118 -20q-156 0 -240 104.5t-84 265.5q0 175 97 280t269 105q68 0 142 -20t115 -59l-73 -82q-53 39 -88.5 53t-95.5 14q-79 0 -130.5 -41.5t-71 -102t-19.5 -138.5q0 -49 11.5 -96.5t34 -90.5t63.5 -69.5t93 -26.5q71 0 114.5 42
t43.5 113v62h-152l13 88h278q-2 -122 -2 -184q0 -121 5 -207z" />
    <glyph glyph-name="H" unicode="H" horiz-adv-x="714" 
d="M650 0h-138v327h-307v-327h-138v671q0 1 -3.5 15t-7 29t-3.5 17h152v-306h307v306h138v-732z" />
    <glyph glyph-name="I" unicode="I" horiz-adv-x="268" 
d="M204 0h-138v671q0 1 -3.5 15t-7 29t-3.5 17h152v-732z" />
    <glyph glyph-name="J" unicode="J" horiz-adv-x="268" 
d="M205 98q0 -56 -4 -96t-17.5 -81t-37.5 -67t-65 -43t-99 -20l-20 78q35 4 57 20.5t32 44t13 52.5t3 61v624q0 1 -3.5 15t-7 29t-3.5 17h152v-634z" />
    <glyph glyph-name="K" unicode="K" horiz-adv-x="584" 
d="M597 0h-160l-233 371v-371h-138v671q0 1 -3.5 15t-7 29t-3.5 17h152v-327l244 327h128l-238 -320z" />
    <glyph glyph-name="L" unicode="L" horiz-adv-x="514" 
d="M492 0h-426v671q0 1 -3 15t-6.5 29t-3.5 17h152v-633h287v-99z" />
    <glyph glyph-name="M" unicode="M" horiz-adv-x="838" 
d="M786 1h-135v496q0 14 5 72q-3 -8 -7.5 -22.5t-8.5 -26.5t-8 -23l-179 -497h-74l-184 497q-4 11 -8 23t-8.5 26.5t-7.5 22.5q0 -9 2.5 -34t2.5 -38v-496h-109v670q0 1 -3.5 15t-7 29t-3.5 17h192l156 -420q11 -30 29 -121q2 7 10.5 50.5t16.5 66.5l153 424h176v-731z" />
    <glyph glyph-name="N" unicode="N" horiz-adv-x="714" 
d="M650 -5h-108l-329 502q-34 53 -42 67q6 -66 6 -67v-497h-111v670q0 1 -3.5 15t-7 29t-3.5 17h164l288 -438q15 -22 41 -66q-6 75 -6 77v427h111v-736z" />
    <glyph glyph-name="O" unicode="O" horiz-adv-x="737" 
d="M718 365q0 -165 -95 -270.5t-258 -105.5t-254.5 106.5t-91.5 271.5q0 166 92 271t255 105q167 0 259.5 -104.5t92.5 -273.5zM570 361q0 53 -10 100.5t-32 91t-63.5 69.5t-97.5 26q-55 0 -96 -24.5t-63 -66t-32 -88t-10 -98.5q0 -53 10 -100.5t32 -91t63.5 -69.5t97.5 -26
q55 0 96 24.5t63 66t32 88t10 98.5z" />
    <glyph glyph-name="P" unicode="P" horiz-adv-x="575" 
d="M549 513q0 -108 -76.5 -163.5t-187.5 -55.5h-82v-294h-137v671q0 2 -7 29.5t-8 31.5h232q120 0 193 -51.5t73 -167.5zM403 513q0 56 -29 88t-85 32h-85v-242h84q54 0 84.5 33.5t30.5 88.5z" />
    <glyph glyph-name="Q" unicode="Q" horiz-adv-x="737" 
d="M1184 -163q-99 -34 -140 -43.5t-109 -9.5q-43 0 -94 11t-112.5 34t-101.5 40t-110 49t-88 40q-30 13 -128 34q-145 31 -213.5 131t-68.5 241q0 75 22 142.5t64 121t110 85t154 31.5t154 -31.5t110 -85t63.5 -121t21.5 -142.5q0 -105 -44 -195.5t-138 -141.5l12 -6
q81 -39 134 -63t143 -52t151 -28q68 0 185 35zM571 364q0 74 -19 135.5t-66 105t-117 43.5q-69 0 -116.5 -43.5t-66.5 -105.5t-19 -136q0 -73 19 -133.5t66.5 -102.5t116.5 -42q102 0 152 81.5t50 197.5z" />
    <glyph glyph-name="R" unicode="R" horiz-adv-x="591" 
d="M617 0h-156l-203 326h-55v-326h-137v671q0 2 -7 29.5t-8 31.5h251q111 0 179 -47t68 -153q0 -62 -47 -116t-109 -69zM404 533q0 47 -33 73t-82 26h-86v-208h64q137 0 137 109z" />
    <glyph glyph-name="S" unicode="S" horiz-adv-x="516" 
d="M496 215q0 -106 -74.5 -166.5t-182.5 -60.5q-137 0 -235 58l47 111q78 -73 175 -73q51 0 87.5 28t36.5 78q0 36 -24 64t-59.5 44t-77.5 37.5t-77.5 43.5t-59.5 62.5t-24 93.5q0 103 71.5 156t190.5 53q45 0 104 -18t90 -42l-69 -86q-56 50 -138 50q-42 0 -72.5 -22
t-30.5 -62q0 -35 24 -61.5t59.5 -42.5t77.5 -38t77.5 -44.5t59.5 -64.5t24 -98z" />
    <glyph glyph-name="T" unicode="T" horiz-adv-x="578" 
d="M565 633h-206v-633h-143v633h-203v99h552v-99z" />
    <glyph glyph-name="U" unicode="U" horiz-adv-x="707" 
d="M644 278q0 -149 -78.5 -219t-209.5 -70q-139 0 -213.5 74.5t-74.5 214.5v394l-16 60h157v-487q0 -73 44 -117t117 -44q74 0 117.5 43t43.5 118v487h113v-454z" />
    <glyph glyph-name="V" unicode="V" horiz-adv-x="603" 
d="M603 731l-253 -733h-98l-252 733h146q136 -396 143 -418q14 -44 29 -114q14 68 39 137l135 395h111z" />
    <glyph glyph-name="W" unicode="W" horiz-adv-x="894" 
d="M908 732l-203 -734h-124q-11 38 -36.5 128.5t-43.5 158t-33 129.5q-14 60 -20 112q-13 -88 -34 -165l-99 -363h-128l-201 734h138q105 -380 116 -423q13 -54 23 -127q9 65 35 164l105 386h116q12 -44 37.5 -132.5t44.5 -159t35 -133.5q12 -49 21 -125q12 86 34 164
l106 386h111z" />
    <glyph glyph-name="X" unicode="X" horiz-adv-x="585" 
d="M597 0h-160l-155 266l-165 -266h-129l229 371l-215 361h159l137 -229l142 229h129l-207 -338z" />
    <glyph glyph-name="Y" unicode="Y" horiz-adv-x="584" 
d="M574 732l-217 -399v-333h-133v333l-214 399h148l146 -272l150 272h120z" />
    <glyph glyph-name="Z" unicode="Z" horiz-adv-x="571" 
d="M558 99l-12 -99h-533v82l351 552h-327v98h503v-73l-358 -560h376z" />
    <glyph glyph-name="bracketleft" unicode="[" horiz-adv-x="351" 
d="M311 -132h-218v864h218v-59h-99v-746h99v-59z" />
    <glyph glyph-name="backslash" unicode="\" horiz-adv-x="326" 
d="M345 0h-94l-269 732h93z" />
    <glyph glyph-name="bracketright" unicode="]" horiz-adv-x="350" 
d="M258 -132h-218v59h99v746h-99v59h218v-864z" />
    <glyph glyph-name="asciicircum" unicode="^" horiz-adv-x="618" 
d="M591 0h-91l-170 368l-173 -368h-88l235 498h52z" />
    <glyph glyph-name="underscore" unicode="_" horiz-adv-x="499" 
d="M504 -143h-508v96h508v-96z" />
    <glyph glyph-name="grave" unicode="`" horiz-adv-x="281" 
d="M258 590h-103l-151 165h145z" />
    <glyph glyph-name="a" unicode="a" 
d="M516 19q-9 -2 -27.5 -8t-30.5 -9.5t-28.5 -6.5t-29.5 -3q-30 0 -51 18.5t-28 48.5q-50 -70 -150 -70q-61 0 -101 34t-40 94q0 52 25 88t68 53.5t86 25t92 7.5v65q0 39 -17 54.5t-55 15.5q-53 0 -128 -58l-49 79q91 62 202 62q80 0 123.5 -41t43.5 -121v-217q0 -50 24 -50
q8 0 50 12zM301 186v23q-146 0 -146 -80q0 -22 17.5 -35t40.5 -13q39 0 63.5 32.5t24.5 72.5z" />
    <glyph glyph-name="b" unicode="b" horiz-adv-x="558" 
d="M530 251q0 -110 -63.5 -186.5t-171.5 -76.5q-92 0 -148 69l-21 -58h-62q4 44 4 66v648q0 1 -6.5 26.5t-7.5 28.5h134v-242q0 -24 -1 -45.5t-1 -23.5q60 51 141 51q64 0 111.5 -40t69.5 -97.5t22 -119.5zM399 245q0 38 -10 74.5t-37 66.5t-66 30q-55 0 -98 -48v-163
q0 -57 25 -96t79 -39q40 0 65.5 31.5t33.5 68t8 75.5z" />
    <glyph glyph-name="c" unicode="c" horiz-adv-x="450" 
d="M442 35q-50 -25 -87 -36t-86 -11q-116 0 -179.5 71.5t-63.5 189.5q0 117 70.5 189t186.5 72q37 0 79 -13t72 -35l-60 -76q-52 39 -102 39q-58 0 -86 -55t-28 -119q0 -45 11.5 -83.5t41.5 -67t76 -28.5t104 49z" />
    <glyph glyph-name="d" unicode="d" horiz-adv-x="558" 
d="M515 3l-121 -12q-8 22 -15 60q-20 -29 -59.5 -46t-78.5 -17q-101 0 -157 76.5t-56 180.5q0 114 60.5 189t171.5 75q72 0 111 -32q-1 27 -1 61v176l-15 54h135v-626q0 -93 25 -139zM370 129v163q0 57 -23 94.5t-76 37.5q-41 0 -67.5 -30.5t-35.5 -67t-9 -76.5
q0 -66 28 -119.5t88 -53.5q27 0 53.5 14.5t41.5 37.5z" />
    <glyph glyph-name="e" unicode="e" 
d="M466 294q0 -60 -51 -60h-262q0 -64 34 -114.5t95 -50.5q31 0 64.5 15t56.5 38l51 -80q-31 -26 -81.5 -39.5t-96.5 -13.5q-116 0 -183 69.5t-67 186.5q0 111 62.5 188.5t170.5 77.5q98 0 152.5 -59t54.5 -158zM341 335q0 41 -21 67.5t-60 26.5q-40 0 -71 -37t-33 -79h168
q17 0 17 22z" />
    <glyph glyph-name="f" unicode="f" horiz-adv-x="288" 
d="M408 753l-32 -81q-31 22 -62 22q-36 0 -59.5 -16.5t-33.5 -47.5t-13 -57t-3 -62v-14h122l-23 -80h-99v-418h-120v418h-82v71q75 0 84 44q3 12 9 45t9.5 44.5t12 34t21.5 39t33 35.5q52 46 137 46q62 0 99 -23z" />
    <glyph glyph-name="g" unicode="g" horiz-adv-x="478" 
d="M248 91h46q30 0 51 -1.5t47 -8t42.5 -18t27.5 -33.5t11 -53q0 -68 -43.5 -117t-103.5 -69.5t-126 -20.5q-34 0 -65.5 5.5t-63.5 18t-51.5 38.5t-19.5 63q0 42 25.5 76.5t62.5 51.5v4q-18 5 -32 25t-14 43q0 8 10.5 18.5t30 31.5t35.5 48q-89 50 -89 147q0 76 55.5 124
t133.5 48q22 0 56 -7.5t51 -7.5q50 0 178 11l-22 -83h-85q-6 0 -23 5q32 -41 32 -89q0 -77 -56.5 -125t-135.5 -48q-19 0 -33 -13t-14 -32q0 -32 82 -32zM262 0h-91q-21 -11 -35 -34.5t-14 -47.5q0 -32 29 -47t64 -15q26 0 49 4t45.5 13.5t36 29t13.5 47.5q0 50 -97 50z
M171 266q17 -28 46 -28t46.5 28t17.5 71t-17.5 71.5t-46.5 28.5t-46 -28.5t-17 -71.5t17 -71z" />
    <glyph glyph-name="h" unicode="h" horiz-adv-x="547" 
d="M481 0h-121v324q0 28 -3 45.5t-18 32t-42 14.5q-22 0 -56.5 -18.5t-51.5 -36.5v-361h-119v715l-12 54h131v-319q74 61 144 61q81 0 114.5 -45t33.5 -130v-336z" />
    <glyph glyph-name="i" unicode="i" horiz-adv-x="251" 
d="M185 0h-120v443q0 1 -2.5 13t-5.5 26t-3 15h131v-497zM179 733q23 -23 23 -55t-22.5 -54.5t-54.5 -22.5t-54.5 22.5t-22.5 54.5t22.5 55t54.5 23t54 -23z" />
    <glyph glyph-name="j" unicode="j" horiz-adv-x="251" 
d="M185 66q0 -44 -3 -78.5t-13.5 -73.5t-29 -66t-51 -47t-77.5 -25l-22 55q27 15 43.5 37.5t23 55.5t8 55t1.5 61v404q0 1 -3 13t-6 25t-3 15h132v-431zM178 733q23 -23 23 -55t-22.5 -54.5t-54.5 -22.5t-54.5 22.5t-22.5 54.5t22.5 55t54.5 23t54 -23z" />
    <glyph glyph-name="k" unicode="k" horiz-adv-x="465" 
d="M491 0h-135l-165 255v-255h-123v715l-13 54h136v-477l154 205h117l-161 -210z" />
    <glyph glyph-name="l" unicode="l" horiz-adv-x="251" 
d="M185 0h-122v715q0 1 -2.5 13t-5.5 26t-3 15h133v-769z" />
    <glyph glyph-name="m" unicode="m" horiz-adv-x="829" 
d="M766 0h-120v332q0 41 -14 62.5t-52 21.5q-23 0 -51.5 -17t-48.5 -37v-362h-121v335q0 81 -63 81q-24 0 -52.5 -16.5t-48.5 -38.5v-361h-120v356q0 100 -31 137l126 15q12 -26 17 -64q76 66 153 66q93 0 124 -73q73 73 162 73q77 0 108.5 -45t31.5 -126v-339z" />
    <glyph glyph-name="n" unicode="n" horiz-adv-x="547" 
d="M486 0h-121v324q0 28 -3 45.5t-18 32t-42 14.5q-22 0 -56.5 -18.5t-51.5 -36.5v-361h-120v356q0 100 -31 137l126 15q12 -26 17 -64q74 67 152 67q81 0 114.5 -45t33.5 -130v-336z" />
    <glyph glyph-name="o" unicode="o" horiz-adv-x="536" 
d="M26 249q0 110 66.5 185.5t175.5 75.5q110 0 176 -75t66 -186t-66 -186t-176 -75t-176 75t-66 186zM268 428q-42 0 -68.5 -32t-34 -69t-7.5 -79t7.5 -79t34 -69t68.5 -32q33 0 56.5 17t34 46t15 57t4.5 60t-4.5 60t-15 57t-34 46t-56.5 17z" />
    <glyph glyph-name="p" unicode="p" horiz-adv-x="556" 
d="M530 254q0 -114 -61 -189t-172 -75q-70 0 -111 32q2 -41 2 -58v-126q12 -50 14 -55h-135v574q0 94 -29 136l125 15q10 -27 15 -60q21 29 61 46t77 17q101 0 157.5 -76t56.5 -181zM399 249q0 66 -28 119.5t-88 53.5q-27 0 -53.5 -14.5t-41.5 -37.5v-163q0 -57 23 -94.5
t76 -37.5q41 0 67.5 30.5t35.5 67t9 76.5z" />
    <glyph glyph-name="q" unicode="q" horiz-adv-x="556" 
d="M502 -217h-134v182q0 25 1 46t1 30q-61 -52 -141 -52q-94 0 -148 79t-54 178q0 111 63 187t171 76q92 0 148 -68l21 56h62q-3 -33 -3 -64v-595q0 -1 3 -13.5t6.5 -26t3.5 -15.5zM368 125v168q0 57 -25 96t-78 39q-31 0 -53 -17.5t-33.5 -46t-16.5 -58.5t-5 -62
q0 -38 10 -74t37 -65t66 -29q56 0 98 49z" />
    <glyph glyph-name="r" unicode="r" horiz-adv-x="349" 
d="M352 507l-20 -119h-4q-44 0 -76.5 -24.5t-63.5 -67.5v-296h-120v363q0 91 -32 134l127 10q22 -50 24 -105q26 44 71.5 74.5t93.5 30.5z" />
    <glyph glyph-name="s" unicode="s" horiz-adv-x="430" 
d="M393 155q0 -77 -58 -123t-137 -46q-88 0 -166 43l43 82q68 -40 113 -40q32 0 53.5 16.5t21.5 47.5q0 27 -22.5 45t-54.5 29t-64.5 25.5t-55 44.5t-22.5 75q0 75 57.5 115.5t134.5 40.5q85 0 147 -31l-42 -84q-44 34 -99 34q-28 0 -48 -13.5t-20 -39.5q0 -25 22.5 -41
t55 -27.5t64.5 -26.5t54.5 -46.5t22.5 -79.5z" />
    <glyph glyph-name="t" unicode="t" horiz-adv-x="327" 
d="M327 11q-67 -21 -118 -21q-65 0 -95 30t-30 96v302h-82v66q38 1 68 27t45 59t24 72h87q-20 -85 -20 -145h121l-24 -79h-97v-275q0 -67 42 -67q23 0 65 10z" />
    <glyph glyph-name="u" unicode="u" horiz-adv-x="553" 
d="M574 19q-7 -2 -35 -10.5t-46.5 -12.5t-35.5 -4q-30 0 -51 18.5t-27 48.5q-71 -73 -164 -73q-82 0 -115.5 45.5t-33.5 129.5v282l-11 54h133v-315q0 -100 65 -100q44 0 75 27t31 70v264q0 1 -3 13t-6 25.5t-3 15.5h134v-365q0 -52 25 -52q2 0 47 12z" />
    <glyph glyph-name="v" unicode="v" horiz-adv-x="455" 
d="M457 497l-176 -501h-108l-175 501h129l91 -262q9 -24 21 -84q13 71 17 84l93 262h108z" />
    <glyph glyph-name="w" unicode="w" horiz-adv-x="658" 
d="M670 497l-158 -501h-93q-6 22 -31 100.5t-38.5 129.5t-22.5 103q-7 -40 -19 -86.5t-22.5 -79.5t-28 -86.5t-26.5 -80.5h-95l-148 501h126l67 -225q7 -23 16 -99q1 8 3.5 30.5t5.5 38t8 30.5l72 225h111l67 -225q4 -15 7 -30.5t5.5 -36.5t3.5 -31q9 74 16 98l71 225h103z
" />
    <glyph glyph-name="x" unicode="x" horiz-adv-x="446" 
d="M460 0h-134l-109 170l-113 -170h-118l174 261l-152 236h135l86 -133l87 133h119l-149 -223z" />
    <glyph glyph-name="y" unicode="y" horiz-adv-x="456" 
d="M458 497l-177 -500q-76 -218 -217 -218h-37v85q12 -3 26 -3q27 0 48.5 12.5t36 36.5t23 43.5t17.5 47.5l-180 496h129q7 -21 43 -121.5t54 -154.5q4 -13 8.5 -40.5t5.5 -34.5q11 64 14 75l96 276h110z" />
    <glyph glyph-name="z" unicode="z" horiz-adv-x="445" 
d="M428 83l-14 -83h-397v61l234 353h-209v83h372v-62l-237 -352h251z" />
    <glyph glyph-name="braceleft" unicode="{" horiz-adv-x="349" 
d="M322 -147h-46q-159 0 -159 171v159q0 33 -16.5 58t-48.5 25v61q64 0 64 89v153q0 78 35.5 124t111.5 46h59v-62q-52 0 -70 -16.5t-18 -67.5v-166q0 -102 -55 -131q54 -29 54 -130v-166q0 -54 16.5 -69t72.5 -15v-63z" />
    <glyph glyph-name="bar" unicode="|" horiz-adv-x="235" 
d="M168 -116h-98v861h98v-861z" />
    <glyph glyph-name="braceright" unicode="}" horiz-adv-x="349" 
d="M297 267q-32 0 -48 -25t-16 -59v-159q0 -171 -160 -171h-46v62q58 0 73 14.5t15 70.5v166q0 101 55 130q-54 29 -54 131v166q0 50 -18.5 66.5t-70.5 16.5v63h59q76 0 111 -46t35 -124v-153q0 -36 15.5 -62t49.5 -26v-61z" />
    <glyph glyph-name="asciitilde" unicode="~" horiz-adv-x="663" 
d="M591 299q-27 -41 -69 -73t-83 -32t-110.5 35t-105.5 35q-45 0 -81 -75l-65 55q20 45 60.5 77.5t85.5 32.5q49 0 121 -35t95 -35q48 0 89 73z" />
    <glyph glyph-name="uni00A0" unicode="&#xa0;" horiz-adv-x="230" 
 />
    <glyph glyph-name="exclamdown" unicode="&#xa1;" horiz-adv-x="329" 
d="M237 -92q0 -32 -38 -32h-71q-39 0 -39 35l29 471h89zM214 594q23 -23 23 -55t-22.5 -54.5t-54.5 -22.5t-54.5 22.5t-22.5 54.5t22.5 55t54.5 23t54 -23z" />
    <glyph glyph-name="cent" unicode="&#xa2;" horiz-adv-x="450" 
d="M442 35q-88 -47 -186 -47l-11 -116h-72l32 123q-90 20 -134.5 88.5t-44.5 165.5q0 109 61 179.5t168 80.5l9 113h74l-28 -114q68 -7 124 -46l-60 -76q-52 39 -102 39q-58 0 -86 -55t-28 -119q0 -45 11.5 -83.5t41.5 -67t76 -28.5t104 49z" />
    <glyph glyph-name="sterling" unicode="&#xa3;" horiz-adv-x="581" 
d="M555 0h-521v100h93v242h-77v99h77v97q0 97 61.5 151.5t159.5 54.5q123 0 196 -115l-98 -54q-38 73 -99 73q-41 0 -63 -27t-22 -69v-111h130v-99h-130v-242h293v-100z" />
    <glyph glyph-name="currency" unicode="&#xa4;" horiz-adv-x="536" 
d="M427 104l-52 51q-48 -34 -109 -34t-109 34l-51 -51l-69 69l56 55q-25 48 -25 104t25 104l-56 57l69 69l52 -53q48 34 108 34t108 -34l53 53l69 -69l-57 -57q26 -50 26 -104t-26 -103l57 -56zM266 205q42 0 73 33t31 96q0 53 -28 89t-75 36q-46 0 -75 -36t-29 -91
q0 -60 32 -93.5t71 -33.5z" />
    <glyph glyph-name="yen" unicode="&#xa5;" horiz-adv-x="502" 
d="M478 497l-102 -177h100v-49h-129l-32 -55v-5h161v-49h-161v-162h-121v162h-169v49h169v5l-34 55h-135v49h106l-107 177h146l94 -165l91 165h123z" />
    <glyph glyph-name="brokenbar" unicode="&#xa6;" horiz-adv-x="238" 
d="M168 392h-98v353h98v-353zM168 -116h-98v353h98v-353z" />
    <glyph glyph-name="section" unicode="&#xa7;" horiz-adv-x="503" 
d="M39 -21l58 87q49 -38 112 -38q39 0 64.5 14.5t25.5 41.5t-28 46.5t-67.5 35t-79 36t-67.5 60t-28 95.5q0 84 79 134q-28 36 -28 90q0 83 62 122t158 39q48 0 96 -15t68 -32l-58 -87q-49 38 -112 38q-39 0 -64.5 -14.5t-25.5 -41.5t28 -46.5t67.5 -35t79 -36t67.5 -60
t28 -95.5q0 -84 -80 -134q29 -37 29 -90q0 -83 -62 -122t-158 -39q-48 0 -96 15t-68 32zM186 433q-34 -22 -34 -57q0 -23 8.5 -40.5t28.5 -31t35.5 -22t46.5 -21.5t45 -20q35 21 35 57q0 23 -9 40.5t-28 31t-36 22t-46.5 21t-45.5 20.5z" />
    <glyph glyph-name="dieresis" unicode="&#xa8;" horiz-adv-x="276" 
d="M219 566q-23 0 -40 17t-17 40t17 40t40 17q24 0 41 -16.5t17 -40.5t-17 -40.5t-41 -16.5zM98 666q18 -18 18 -43t-17.5 -43t-43.5 -18t-43.5 18t-17.5 43t17.5 43t43.5 18t43 -18z" />
    <glyph glyph-name="copyright" unicode="&#xa9;" horiz-adv-x="635" 
d="M316 -27q-115 0 -196 81t-81 196t81 196t196 81q114 0 195.5 -81.5t81.5 -195.5t-81.5 -195.5t-195.5 -81.5zM483 82q70 70 70 168t-69.5 167.5t-167.5 69.5t-167.5 -69.5t-69.5 -167.5t69.5 -167.5t167.5 -69.5t167 69zM435 112q-62 -32 -116 -32q-75 0 -116.5 47
t-41.5 123t46 123.5t121 47.5q55 0 102 -35l-44 -56q-34 27 -65 27q-34 0 -50.5 -33.5t-16.5 -72.5q0 -43 18.5 -75.5t58.5 -32.5q35 0 66 33z" />
    <glyph glyph-name="ordfeminine" unicode="&#xaa;" horiz-adv-x="315" 
d="M269 272h-239v58h239v-58zM312 454l14 -48q-39 -18 -71 -18q-46 0 -57 44q-45 -46 -102 -46q-44 0 -71.5 25t-27.5 65q0 34 17 58t46.5 35.5t59.5 16.5t65 5v37q0 46 -53 46q-39 0 -88 -38l-33 52q61 41 133 41q118 0 118 -107v-142q0 -34 21 -34q13 0 29 8zM185 516v21
q-106 0 -106 -53q0 -16 10 -26.5t28 -10.5q28 0 48 20.5t20 48.5z" />
    <glyph glyph-name="guillemotleft" unicode="&#xab;" horiz-adv-x="466" 
d="M268 173l-76 -11l-156 170l152 172l77 -14l-119 -158zM437 173l-76 -11l-156 170l152 172l77 -14l-119 -158z" />
    <glyph glyph-name="logicalnot" unicode="&#xac;" horiz-adv-x="638" 
d="M568 79h-86v188h-412v83h498v-271z" />
    <glyph glyph-name="uni00AD" unicode="&#xad;" horiz-adv-x="313" 
d="M270 210h-221v95h221v-95z" />
    <glyph glyph-name="registered" unicode="&#xae;" horiz-adv-x="459" 
d="M380 759q62 -62 62 -149t-62 -149t-149 -62t-148.5 62t-61.5 149t61.5 149t148.5 62t149 -62zM407 610q0 72 -51.5 123.5t-124.5 51.5q-72 0 -123.5 -51t-51.5 -124t51.5 -124t123.5 -51q73 0 124.5 51t51.5 124zM353 497h-71l-66 96h-10v-96h-60v235h93q83 0 83 -69
q0 -40 -43 -59zM262 665q0 20 -30 20h-26v-45h19q37 0 37 25z" />
    <glyph glyph-name="macron" unicode="&#xaf;" horiz-adv-x="274" 
d="M284 581h-295v74h295v-74z" />
    <glyph glyph-name="degree" unicode="&#xb0;" horiz-adv-x="388" 
d="M340 593q0 -61 -42.5 -103t-103.5 -42q-60 0 -102.5 42.5t-42.5 102.5t42.5 102.5t102.5 42.5t103 -42.5t43 -102.5zM250 536q23 24 23 57t-23 57t-56 24t-55.5 -24t-22.5 -57t22.5 -57t55.5 -24t56 24z" />
    <glyph glyph-name="plusminus" unicode="&#xb1;" horiz-adv-x="632" 
d="M565 267h-205v-147h-88v146h-205v85h205v146h88v-145h205v-85zM565 1h-496v88h496v-88z" />
    <glyph glyph-name="twosuperior" unicode="&#xb2;" horiz-adv-x="455" 
d="M392 438h-349v51q10 8 26 21.5t57.5 52.5t73.5 74.5t58 80t26 76.5q0 28 -17.5 45t-45.5 17q-27 0 -58 -14.5t-49 -29.5l-17 -14l-44 66q8 8 24 20t65.5 31.5t100.5 19.5q78 0 118.5 -37.5t40.5 -93.5q0 -41 -20.5 -84t-50 -75t-58.5 -58t-49 -40l-21 -14h216z" />
    <glyph glyph-name="threesuperior" unicode="&#xb3;" horiz-adv-x="455" 
d="M63 425l-15 69q117 6 180.5 37.5t63.5 81.5q0 59 -103 59l-35 -2l-11 58q132 27 132 93q0 16 -14.5 25.5t-34.5 9.5q-68 0 -130 -50l-43 61q37 29 89.5 48.5t99.5 19.5q59 0 100.5 -21.5t41.5 -72.5q0 -73 -85 -103q107 -19 107 -116q0 -23 -7.5 -45t-30 -49t-58.5 -48
t-100 -36.5t-147 -18.5z" />
    <glyph glyph-name="acute" unicode="&#xb4;" horiz-adv-x="281" 
d="M287 755l-151 -165h-103l109 165h145z" />
    <glyph glyph-name="mu" unicode="&#xb5;" horiz-adv-x="549" 
d="M574 19q-7 -2 -35 -10.5t-46.5 -12.5t-35.5 -4q-30 0 -50.5 18t-27.5 48q-58 -68 -123 -68q-33 0 -65 15v-191h-124v631q0 1 -2.5 13t-5.5 25.5t-3 14.5h132v-311q0 -103 66 -103q60 0 105 47v314q0 1 -3 13t-6 25t-3 15h133v-366q0 -52 25 -52q3 0 48 12z" />
    <glyph glyph-name="mu" unicode="&#x3bc;" horiz-adv-x="549" 
d="M574 19q-7 -2 -35 -10.5t-46.5 -12.5t-35.5 -4q-30 0 -50.5 18t-27.5 48q-58 -68 -123 -68q-33 0 -65 15v-191h-124v631q0 1 -2.5 13t-5.5 25.5t-3 14.5h132v-311q0 -103 66 -103q60 0 105 47v314q0 1 -3 13t-6 25t-3 15h133v-366q0 -52 25 -52q3 0 48 12z" />
    <glyph glyph-name="paragraph" unicode="&#xb6;" horiz-adv-x="500" 
d="M455 664h-56v-654q0 -46 -32.5 -78.5t-78.5 -32.5q-5 0 -17 2q-15 -27 -41 -43t-57 -16q-46 0 -78.5 32.5t-32.5 78.5t32.5 78.5t78.5 32.5v-54q-23 0 -40 -17t-17 -40t17 -40t40 -17t39.5 17t16.5 40v379q-79 0 -134 54t-55 134q0 98 61.5 148t161.5 50h192v-54zM345 10
v654h-61v-711h4q23 0 40 17t17 40z" />
    <glyph glyph-name="periodcentered" unicode="&#xb7;" horiz-adv-x="293" 
d="M199 313q23 -23 23 -55t-22.5 -54.5t-54.5 -22.5t-54.5 22.5t-22.5 54.5t22.5 55t54.5 23t54 -23z" />
    <glyph glyph-name="cedilla" unicode="&#xb8;" horiz-adv-x="280" 
d="M117 -220q-41 0 -92 30l28 50q41 -22 67 -22q16 0 27.5 9.5t11.5 23.5q0 29 -33 29h-47q-19 0 -19 17q0 5 3 10l48 82h59l-32 -57h4q46 0 78 -18t32 -60q0 -94 -135 -94z" />
    <glyph glyph-name="onesuperior" unicode="&#xb9;" horiz-adv-x="455" 
d="M416 438h-354v79h133v303l-125 -35l-25 70q92 28 179 69h85v-407h107v-79z" />
    <glyph glyph-name="ordmasculine" unicode="&#xba;" horiz-adv-x="332" 
d="M289 686q44 -49 44 -126t-44.5 -125.5t-120.5 -48.5t-120 48.5t-44 125.5t44.5 126t120.5 49t120 -49zM287 272h-239v58h239v-58zM244 560q0 48 -17 84t-59 36q-75 0 -75 -120q0 -48 17 -83.5t59 -35.5q75 0 75 119z" />
    <glyph glyph-name="guillemotright" unicode="&#xbb;" horiz-adv-x="466" 
d="M269 332l-156 -170l-75 11l122 159l-120 158l77 14zM437 332l-156 -170l-75 11l122 159l-120 158l77 14z" />
    <glyph glyph-name="onequarter" unicode="&#xbc;" horiz-adv-x="1049" 
d="M447 -27h-83l311 780h84zM949 0h-114v101h-225v52l226 333h113v-306h72l-25 -79h-47v-101zM835 180v117l8 89q-16 -52 -50 -103l-68 -103h110zM416 246h-354v79h133v303l-125 -35l-25 70q92 28 179 69h85v-407h107v-79z" />
    <glyph glyph-name="onehalf" unicode="&#xbd;" horiz-adv-x="1097" 
d="M1033 0h-347v52l9 8q231 208 231 292q0 26 -18 41.5t-45 15.5q-56 0 -123 -52l-44 69q92 71 193 71q70 0 116.5 -33t46.5 -101t-56 -137.5t-127 -119.5h192zM447 -27h-83l311 780h84zM416 246h-354v79h133v303l-125 -35l-25 70q92 28 179 69h85v-407h107v-79z" />
    <glyph glyph-name="threequarters" unicode="&#xbe;" horiz-adv-x="1004" 
d="M402 -27h-83l311 780h84zM904 0h-114v101h-225v52l226 333h113v-306h72l-25 -79h-47v-101zM790 180v117l8 89q-16 -52 -50 -103l-68 -103h110zM63 233l-15 69q117 6 180.5 37.5t63.5 81.5q0 59 -103 59l-35 -2l-11 58q132 27 132 93q0 16 -14.5 25.5t-34.5 9.5
q-68 0 -130 -50l-43 61q37 29 89.5 48.5t99.5 19.5q59 0 100.5 -21.5t41.5 -72.5q0 -73 -85 -103q107 -19 107 -116q0 -23 -7.5 -45t-30 -49t-58.5 -48t-100 -36.5t-147 -18.5z" />
    <glyph glyph-name="questiondown" unicode="&#xbf;" horiz-adv-x="431" 
d="M409 -78q-68 -44 -163 -44q-89 0 -154.5 46.5t-65.5 131.5q0 127 152 187q13 5 13 21v119h107v-205q-53 -4 -98 -34.5t-45 -79.5q0 -41 31 -65t73 -24q52 0 104 35zM299 590q23 -23 23 -55t-22.5 -54.5t-54.5 -22.5t-54.5 22.5t-22.5 54.5t22.5 55t54.5 23t54 -23z" />
    <glyph glyph-name="Agrave" unicode="&#xc0;" horiz-adv-x="631" 
d="M629 0h-144l-71 190h-224l-72 -190h-116l257 680h111zM376 288q-28 83 -74 251q-30 -112 -75 -251h149zM383 717h-103l-151 165h145z" />
    <glyph glyph-name="Aacute" unicode="&#xc1;" horiz-adv-x="631" 
d="M629 0h-144l-71 190h-224l-72 -190h-116l257 680h111zM376 288q-28 83 -74 251q-30 -112 -75 -251h149zM499 881l-151 -165h-103l109 165h145z" />
    <glyph glyph-name="Acircumflex" unicode="&#xc2;" horiz-adv-x="631" 
d="M629 0h-144l-71 190h-224l-72 -190h-116l257 680h111zM376 288q-28 83 -74 251q-30 -112 -75 -251h149zM460 713h-78l-70 74l-69 -74h-76l96 145h98z" />
    <glyph glyph-name="Atilde" unicode="&#xc3;" horiz-adv-x="631" 
d="M629 0h-144l-71 190h-224l-72 -190h-116l257 680h111zM376 288q-28 83 -74 251q-30 -112 -75 -251h149zM489 830q0 -50 -28.5 -83.5t-77.5 -33.5q-30 0 -71.5 20t-58.5 20q-15 0 -27.5 -8t-12.5 -22h-65q0 50 28.5 83.5t77.5 33.5q30 0 71.5 -20t58.5 -20q14 0 27 8
t14 22h64z" />
    <glyph glyph-name="Adieresis" unicode="&#xc4;" horiz-adv-x="631" 
d="M629 0h-144l-71 190h-224l-72 -190h-116l257 680h111zM376 288q-28 83 -74 251q-30 -112 -75 -251h149zM396 735q-23 0 -40 17t-17 40t17 40t40 17q24 0 41 -16.5t17 -40.5t-17 -40.5t-41 -16.5zM276 832q17 -16 17 -40t-16.5 -40.5t-40.5 -16.5t-40.5 16.5t-16.5 40.5
t16.5 40.5t40.5 16.5t40 -17z" />
    <glyph glyph-name="Aring" unicode="&#xc5;" horiz-adv-x="631" 
d="M629 0h-144l-71 190h-224l-72 -190h-116l251 664q-46 32 -46 87q0 44 31 74t75 30q45 0 76.5 -29.5t31.5 -73.5q0 -55 -45 -87zM273 752q0 -17 12 -29t28 -12q17 0 29 12.5t12 28.5t-12.5 28t-28.5 12t-28 -12t-12 -28zM376 288q-28 83 -74 251q-30 -112 -75 -251h149z
" />
    <glyph glyph-name="AE" unicode="&#xc6;" horiz-adv-x="924" 
d="M887 0h-445v210h-215l-107 -210h-122l339 670l-14 62h564v-99h-307v-207h235v-99h-235v-228h307v-99zM442 308v325l-164 -325h164z" />
    <glyph glyph-name="Ccedilla" unicode="&#xc7;" horiz-adv-x="624" 
d="M612 62q-63 -39 -117.5 -56.5t-126.5 -17.5l-20 -36h4q44 0 77 -18.5t33 -59.5q0 -94 -135 -94q-41 0 -92 30l28 50q41 -22 67 -22q16 0 27.5 9.5t11.5 23.5q0 29 -33 29h-47q-19 0 -19 17q0 5 3 10l38 65q-141 18 -216 121t-75 258q0 163 95 269t256 106q62 0 130 -18
t107 -53l-72 -92q-27 30 -72 48t-88 18q-74 0 -122.5 -42t-66.5 -101t-18 -132q0 -48 12.5 -97.5t36.5 -94t66 -72.5t94 -28q93 0 171 75z" />
    <glyph glyph-name="Egrave" unicode="&#xc8;" horiz-adv-x="549" 
d="M513 0h-445v613q0 1 -3.5 15t-7 29t-3.5 17h459v-99h-307v-184h235v-99h-235v-193h307v-99zM366 717h-103l-151 165h145z" />
    <glyph glyph-name="Eacute" unicode="&#xc9;" horiz-adv-x="549" 
d="M513 0h-445v613q0 1 -3.5 15t-7 29t-3.5 17h459v-99h-307v-184h235v-99h-235v-193h307v-99zM472 881l-151 -165h-103l109 165h145z" />
    <glyph glyph-name="Ecircumflex" unicode="&#xca;" horiz-adv-x="549" 
d="M513 0h-445v613q0 1 -3.5 15t-7 29t-3.5 17h459v-99h-307v-184h235v-99h-235v-193h307v-99zM442 717h-78l-70 74l-69 -74h-76l96 145h98z" />
    <glyph glyph-name="Edieresis" unicode="&#xcb;" horiz-adv-x="549" 
d="M513 0h-445v613q0 1 -3.5 15t-7 29t-3.5 17h459v-99h-307v-184h235v-99h-235v-193h307v-99zM378 735q-23 0 -40 17t-17 40t17 40t40 17q24 0 41 -16.5t17 -40.5t-17 -40.5t-41 -16.5zM258 832q17 -16 17 -40t-16.5 -40.5t-40.5 -16.5t-40.5 16.5t-16.5 40.5t16.5 40.5
t40.5 16.5t40 -17z" />
    <glyph glyph-name="Igrave" unicode="&#xcc;" horiz-adv-x="261" 
d="M205 0h-138v613q0 1 -3.5 15t-7 29t-3.5 17h152v-674zM204 717h-103l-151 165h145z" />
    <glyph glyph-name="Iacute" unicode="&#xcd;" horiz-adv-x="261" 
d="M204 0h-138v613q0 1 -3.5 15t-7 29t-3.5 17h152v-674zM300 881l-151 -165h-103l109 165h145z" />
    <glyph glyph-name="Icircumflex" unicode="&#xce;" horiz-adv-x="261" 
d="M205 0h-138v613q0 1 -3.5 15t-7 29t-3.5 17h152v-674zM282 713h-78l-70 74l-69 -74h-76l96 145h98z" />
    <glyph glyph-name="Idieresis" unicode="&#xcf;" horiz-adv-x="261" 
d="M205 0h-138v613q0 1 -3.5 15t-7 29t-3.5 17h152v-674zM214 735q-23 0 -40 17t-17 40t17 40t40 17q24 0 41 -16.5t17 -40.5t-17 -40.5t-41 -16.5zM94 832q17 -16 17 -40t-16.5 -40.5t-40.5 -16.5t-40.5 16.5t-16.5 40.5t16.5 40.5t40.5 16.5t40 -17z" />
    <glyph glyph-name="Eth" unicode="&#xd0;" horiz-adv-x="715" 
d="M327 0h-260v324h-83v88h83v260q-1 3 -8 30t-8 30h277q165 0 258.5 -100.5t93.5 -266.5q0 -168 -103 -270q-95 -95 -250 -95zM205 99h116q55 0 97 21.5t66 59t36 83t12 98.5q0 72 -20 131t-69.5 100t-123.5 41h-114v-221h150v-88h-150v-225z" />
    <glyph glyph-name="Ntilde" unicode="&#xd1;" horiz-adv-x="714" 
d="M669 -5h-100l-337 444q-9 12 -24.5 37.5t-17.5 29.5q6 -66 6 -67v-439h-111v613q0 1 -3.5 15t-7 29t-3.5 17h147l305 -404q1 -1 41 -66q-6 75 -6 77v393h111v-679zM559 830q0 -50 -28.5 -83.5t-77.5 -33.5q-30 0 -71.5 20t-58.5 20q-15 0 -27.5 -8t-12.5 -22h-65
q0 50 28.5 83.5t77.5 33.5q30 0 71.5 -20t58.5 -20q14 0 27 8t14 22h64z" />
    <glyph glyph-name="Ograve" unicode="&#xd2;" horiz-adv-x="736" 
d="M369 -12q-158 0 -254 95.5t-96 252.5t96 252.5t253 95.5q158 0 254 -95.5t96 -252.5t-96 -252.5t-253 -95.5zM571 336q0 108 -50.5 180.5t-151.5 72.5q-102 0 -153 -73t-51 -179q0 -50 11.5 -94t35 -80.5t63.5 -57.5t92 -21q102 0 153 73t51 179zM417 717h-103l-151 165
h145z" />
    <glyph glyph-name="Oacute" unicode="&#xd3;" horiz-adv-x="736" 
d="M369 -12q-158 0 -254 95.5t-96 252.5t96 252.5t253 95.5q158 0 254 -95.5t96 -252.5t-96 -252.5t-253 -95.5zM571 336q0 108 -50.5 180.5t-151.5 72.5q-102 0 -153 -73t-51 -179q0 -50 11.5 -94t35 -80.5t63.5 -57.5t92 -21q102 0 153 73t51 179zM570 879l-151 -165h-103
l109 165h145z" />
    <glyph glyph-name="Ocircumflex" unicode="&#xd4;" horiz-adv-x="736" 
d="M369 -12q-158 0 -254 95.5t-96 252.5t96 252.5t253 95.5q158 0 254 -95.5t96 -252.5t-96 -252.5t-253 -95.5zM571 336q0 108 -50.5 180.5t-151.5 72.5q-102 0 -153 -73t-51 -179q0 -50 11.5 -94t35 -80.5t63.5 -57.5t92 -21q102 0 153 73t51 179zM513 717h-78l-70 74
l-69 -74h-76l96 145h98z" />
    <glyph glyph-name="Otilde" unicode="&#xd5;" horiz-adv-x="736" 
d="M369 -12q-158 0 -254 95.5t-96 252.5t96 252.5t253 95.5q158 0 254 -95.5t96 -252.5t-96 -252.5t-253 -95.5zM571 336q0 108 -50.5 180.5t-151.5 72.5q-102 0 -153 -73t-51 -179q0 -50 11.5 -94t35 -80.5t63.5 -57.5t92 -21q102 0 153 73t51 179zM547 830
q0 -50 -28.5 -83.5t-77.5 -33.5q-30 0 -71.5 20t-58.5 20q-15 0 -27.5 -8t-12.5 -22h-65q0 50 28.5 83.5t77.5 33.5q30 0 71.5 -20t58.5 -20q14 0 27 8t14 22h64z" />
    <glyph glyph-name="Odieresis" unicode="&#xd6;" horiz-adv-x="736" 
d="M369 -12q-158 0 -254 95.5t-96 252.5t96 252.5t253 95.5q158 0 254 -95.5t96 -252.5t-96 -252.5t-253 -95.5zM571 336q0 108 -50.5 180.5t-151.5 72.5q-102 0 -153 -73t-51 -179q0 -50 11.5 -94t35 -80.5t63.5 -57.5t92 -21q102 0 153 73t51 179zM444 735q-23 0 -40 17
t-17 40t17 40t40 17q24 0 41 -16.5t17 -40.5t-17 -40.5t-41 -16.5zM324 832q17 -16 17 -40t-16.5 -40.5t-40.5 -16.5t-40.5 16.5t-16.5 40.5t16.5 40.5t40.5 16.5t40 -17z" />
    <glyph glyph-name="multiply" unicode="&#xd7;" horiz-adv-x="534" 
d="M474 104l-62 -62l-145 144l-145 -144l-62 62l145 144l-145 145l62 62l145 -144l145 144l62 -62l-145 -145z" />
    <glyph glyph-name="Oslash" unicode="&#xd8;" horiz-adv-x="736" 
d="M717 365q0 -165 -95 -270.5t-258 -105.5q-102 0 -181 46l-59 -91l-53 31l63 97q-115 100 -115 295q0 166 91.5 271t254.5 105q101 0 179 -41l49 75l53 -33l-51 -77q122 -101 122 -302zM482 608q-47 40 -115 40q-55 0 -96 -24.5t-63 -66t-32 -88t-10 -98.5q0 -116 40 -188
zM569 361q0 122 -45 197l-279 -427q50 -47 123 -47q55 0 96 24.5t63 66t32 88t10 98.5z" />
    <glyph glyph-name="Ugrave" unicode="&#xd9;" horiz-adv-x="707" 
d="M644 674v-405q0 -144 -78 -212t-210 -68q-139 0 -213.5 74.5t-74.5 214.5v336l-16 60h157v-429q0 -73 44 -117t117 -44q74 0 117.5 43t43.5 118v429h113zM431 716h-103l-151 165h145z" />
    <glyph glyph-name="Uacute" unicode="&#xda;" horiz-adv-x="707" 
d="M644 674v-405q0 -144 -78 -212t-210 -68q-139 0 -213.5 74.5t-74.5 214.5v336l-16 60h157v-429q0 -73 44 -117t117 -44q74 0 117.5 43t43.5 118v429h113zM576 881l-151 -165h-103l109 165h145z" />
    <glyph glyph-name="Ucircumflex" unicode="&#xdb;" horiz-adv-x="707" 
d="M644 674v-405q0 -144 -78 -212t-210 -68q-139 0 -213.5 74.5t-74.5 214.5v336l-16 60h157v-429q0 -73 44 -117t117 -44q74 0 117.5 43t43.5 118v429h113zM517 718h-78l-70 74l-69 -74h-76l96 145h98z" />
    <glyph glyph-name="Udieresis" unicode="&#xdc;" horiz-adv-x="707" 
d="M644 674v-405q0 -144 -78 -212t-210 -68q-139 0 -213.5 74.5t-74.5 214.5v336l-16 60h157v-429q0 -73 44 -117t117 -44q74 0 117.5 43t43.5 118v429h113zM450 735q-23 0 -40 17t-17 40t17 40t40 17q24 0 41 -16.5t17 -40.5t-17 -40.5t-41 -16.5zM330 832q17 -16 17 -40
t-16.5 -40.5t-40.5 -16.5t-40.5 16.5t-16.5 40.5t16.5 40.5t40.5 16.5t40 -17z" />
    <glyph glyph-name="Yacute" unicode="&#xdd;" horiz-adv-x="584" 
d="M574 674l-217 -400v-274h-133v274l-214 400h148l146 -273l150 273h120zM512 881l-151 -165h-103l109 165h145z" />
    <glyph glyph-name="Thorn" unicode="&#xde;" horiz-adv-x="575" 
d="M203 0h-137v671q0 1 -3 15t-6.5 29t-3.5 17h152v-115h78q120 0 193 -51.5t73 -167.5q0 -108 -76.5 -163.5t-187.5 -55.5h-82v-179zM204 276h84q54 0 84.5 33.5t30.5 88.5q0 56 -29 88t-85 32h-85v-242z" />
    <glyph glyph-name="germandbls" unicode="&#xdf;" horiz-adv-x="590" 
d="M572 189q0 -91 -62 -145.5t-155 -54.5q-65 0 -130 30l39 77q47 -17 79 -17q36 0 65.5 27.5t29.5 63.5q0 37 -11.5 60t-41.5 40q-9 5 -40.5 19t-51.5 25t-38 30t-18 40q0 28 14.5 48.5t35 33t41 26t35 35.5t14.5 53q0 27 -21.5 47.5t-48.5 20.5q-109 0 -109 -183v-465
h-123v416h-75v86q73 0 82 37q23 98 75.5 152t148.5 54q87 0 146 -43t59 -127q0 -45 -21.5 -75.5t-46.5 -42t-46.5 -24.5t-21.5 -27q0 -13 31 -27.5t67.5 -29.5t67.5 -56.5t31 -103.5z" />
    <glyph glyph-name="agrave" unicode="&#xe0;" 
d="M516 19q-9 -2 -27.5 -8t-30.5 -9.5t-28.5 -6.5t-29.5 -3q-30 0 -51 18.5t-28 48.5q-50 -70 -150 -70q-61 0 -101 34t-40 94q0 52 25 88t68 53.5t86 25t92 7.5v65q0 39 -17 54.5t-55 15.5q-53 0 -128 -58l-49 79q91 62 202 62q80 0 123.5 -41t43.5 -121v-217q0 -50 24 -50
q8 0 50 12zM301 186v23q-146 0 -146 -80q0 -22 17.5 -35t40.5 -13q39 0 63.5 32.5t24.5 72.5zM310 590h-103l-151 165h145z" />
    <glyph glyph-name="aacute" unicode="&#xe1;" 
d="M456 755l-151 -165h-103l109 165h145zM516 19q-9 -2 -27.5 -8t-30.5 -9.5t-28.5 -6.5t-29.5 -3q-30 0 -51 18.5t-28 48.5q-50 -70 -150 -70q-61 0 -101 34t-40 94q0 52 25 88t68 53.5t86 25t92 7.5v65q0 39 -17 54.5t-55 15.5q-53 0 -128 -58l-49 79q91 62 202 62
q80 0 123.5 -41t43.5 -121v-217q0 -50 24 -50q8 0 50 12zM301 186v23q-146 0 -146 -80q0 -22 17.5 -35t40.5 -13q39 0 63.5 32.5t24.5 72.5z" />
    <glyph glyph-name="acircumflex" unicode="&#xe2;" 
d="M400 588h-78l-70 74l-69 -74h-76l96 145h98zM516 19q-9 -2 -27.5 -8t-30.5 -9.5t-28.5 -6.5t-29.5 -3q-30 0 -51 18.5t-28 48.5q-50 -70 -150 -70q-61 0 -101 34t-40 94q0 52 25 88t68 53.5t86 25t92 7.5v65q0 39 -17 54.5t-55 15.5q-53 0 -128 -58l-49 79q91 62 202 62
q80 0 123.5 -41t43.5 -121v-217q0 -50 24 -50q8 0 50 12zM301 186v23q-146 0 -146 -80q0 -22 17.5 -35t40.5 -13q39 0 63.5 32.5t24.5 72.5z" />
    <glyph glyph-name="atilde" unicode="&#xe3;" 
d="M424 682q0 -50 -28.5 -83.5t-77.5 -33.5q-30 0 -71.5 20t-58.5 20q-15 0 -27.5 -8t-12.5 -22h-65q0 50 28.5 83.5t77.5 33.5q30 0 71.5 -20t58.5 -20q14 0 27 8t14 22h64zM516 19q-9 -2 -27.5 -8t-30.5 -9.5t-28.5 -6.5t-29.5 -3q-30 0 -51 18.5t-28 48.5
q-50 -70 -150 -70q-61 0 -101 34t-40 94q0 52 25 88t68 53.5t86 25t92 7.5v65q0 39 -17 54.5t-55 15.5q-53 0 -128 -58l-49 79q91 62 202 62q80 0 123.5 -41t43.5 -121v-217q0 -50 24 -50q8 0 50 12zM301 186v23q-146 0 -146 -80q0 -22 17.5 -35t40.5 -13q39 0 63.5 32.5
t24.5 72.5z" />
    <glyph glyph-name="adieresis" unicode="&#xe4;" 
d="M328 573q-23 0 -40 17t-17 40t17 40t40 17q24 0 41 -16.5t17 -40.5t-17 -40.5t-41 -16.5zM207 673q18 -18 18 -43t-17.5 -43t-43.5 -18t-43.5 18t-17.5 43t17.5 43t43.5 18t43 -18zM516 19q-9 -2 -27.5 -8t-30.5 -9.5t-28.5 -6.5t-29.5 -3q-30 0 -51 18.5t-28 48.5
q-50 -70 -150 -70q-61 0 -101 34t-40 94q0 52 25 88t68 53.5t86 25t92 7.5v65q0 39 -17 54.5t-55 15.5q-53 0 -128 -58l-49 79q91 62 202 62q80 0 123.5 -41t43.5 -121v-217q0 -50 24 -50q8 0 50 12zM301 186v23q-146 0 -146 -80q0 -22 17.5 -35t40.5 -13q39 0 63.5 32.5
t24.5 72.5z" />
    <glyph glyph-name="aring" unicode="&#xe5;" 
d="M326 733q32 -31 32 -75t-32 -75.5t-76 -31.5t-75.5 31.5t-31.5 75.5t31.5 75.5t75.5 31.5t76 -32zM220 686q-11 -12 -11 -29t11.5 -28.5t28.5 -11.5t29 11.5t12 28.5t-12 29t-29 12t-29 -12zM516 19q-9 -2 -27.5 -8t-30.5 -9.5t-28.5 -6.5t-29.5 -3q-30 0 -51 18.5
t-28 48.5q-50 -70 -150 -70q-61 0 -101 34t-40 94q0 52 25 88t68 53.5t86 25t92 7.5v65q0 39 -17 54.5t-55 15.5q-53 0 -128 -58l-49 79q91 62 202 62q80 0 123.5 -41t43.5 -121v-217q0 -50 24 -50q8 0 50 12zM301 186v23q-146 0 -146 -80q0 -22 17.5 -35t40.5 -13
q39 0 63.5 32.5t24.5 72.5z" />
    <glyph glyph-name="ae" unicode="&#xe6;" horiz-adv-x="750" 
d="M735 283q0 -60 -51 -60h-262q0 -60 35.5 -107t93.5 -47q31 0 64.5 15t56.5 38l51 -80q-31 -25 -82 -39t-96 -14q-133 0 -195 84q-58 -84 -181 -84q-59 0 -100 38t-41 97q0 52 25 89t67.5 55.5t86 26t92.5 7.5v54q0 39 -17 54.5t-55 15.5q-53 0 -128 -58l-49 79
q91 62 202 62q93 0 133 -53q24 26 64 40.5t79 14.5q101 0 154 -62.5t53 -165.5zM609 324q0 104 -79 104q-45 0 -75 -40t-30 -86h168q16 0 16 22zM299 223q-34 0 -64 -6t-56 -27.5t-26 -55.5q0 -26 16 -39.5t43 -13.5q87 0 87 142z" />
    <glyph glyph-name="ccedilla" unicode="&#xe7;" horiz-adv-x="450" 
d="M442 35q-50 -25 -87 -36t-87 -11l-20 -36h4q44 0 77 -18.5t33 -59.5q0 -94 -135 -94q-41 0 -92 30l28 50q41 -22 67 -22q16 0 27.5 9.5t11.5 23.5q0 29 -33 29h-47q-19 0 -19 17q0 5 3 10l39 66q-90 17 -138 85t-48 171q0 117 70.5 189t186.5 72q37 0 79 -13t72 -35
l-60 -76q-52 39 -102 39q-58 0 -86 -55t-28 -119q0 -45 11.5 -83.5t41.5 -67t76 -28.5t104 49z" />
    <glyph glyph-name="egrave" unicode="&#xe8;" 
d="M466 294q0 -60 -51 -60h-262q0 -64 34 -114.5t95 -50.5q31 0 64.5 15t56.5 38l51 -80q-31 -26 -81.5 -39.5t-96.5 -13.5q-116 0 -183 69.5t-67 186.5q0 111 62.5 188.5t170.5 77.5q98 0 152.5 -59t54.5 -158zM341 335q0 41 -21 67.5t-60 26.5q-40 0 -71 -37t-33 -79h168
q17 0 17 22zM320 590h-103l-151 165h145z" />
    <glyph glyph-name="eacute" unicode="&#xe9;" 
d="M473 755l-151 -165h-103l109 165h145zM466 294q0 -60 -51 -60h-262q0 -64 34 -114.5t95 -50.5q31 0 64.5 15t56.5 38l51 -80q-31 -26 -81.5 -39.5t-96.5 -13.5q-116 0 -183 69.5t-67 186.5q0 111 62.5 188.5t170.5 77.5q98 0 152.5 -59t54.5 -158zM341 335q0 41 -21 67.5
t-60 26.5q-40 0 -71 -37t-33 -79h168q17 0 17 22z" />
    <glyph glyph-name="ecircumflex" unicode="&#xea;" 
d="M419 588h-78l-70 74l-69 -74h-76l96 145h98zM466 294q0 -60 -51 -60h-262q0 -64 34 -114.5t95 -50.5q31 0 64.5 15t56.5 38l51 -80q-31 -26 -81.5 -39.5t-96.5 -13.5q-116 0 -183 69.5t-67 186.5q0 111 62.5 188.5t170.5 77.5q98 0 152.5 -59t54.5 -158zM341 335
q0 41 -21 67.5t-60 26.5q-40 0 -71 -37t-33 -79h168q17 0 17 22z" />
    <glyph glyph-name="edieresis" unicode="&#xeb;" 
d="M345 572q-23 0 -40 17t-17 40t17 40t40 17q24 0 41 -16.5t17 -40.5t-17 -40.5t-41 -16.5zM224 672q18 -18 18 -43t-17.5 -43t-43.5 -18t-43.5 18t-17.5 43t17.5 43t43.5 18t43 -18zM466 294q0 -60 -51 -60h-262q0 -64 34 -114.5t95 -50.5q31 0 64.5 15t56.5 38l51 -80
q-31 -26 -81.5 -39.5t-96.5 -13.5q-116 0 -183 69.5t-67 186.5q0 111 62.5 188.5t170.5 77.5q98 0 152.5 -59t54.5 -158zM341 335q0 41 -21 67.5t-60 26.5q-40 0 -71 -37t-33 -79h168q17 0 17 22z" />
    <glyph glyph-name="igrave" unicode="&#xec;" horiz-adv-x="251" 
d="M186 0h-120v443q0 1 -2.5 13t-5.5 26t-3 15h131v-497zM186 590h-103l-151 165h145z" />
    <glyph glyph-name="iacute" unicode="&#xed;" horiz-adv-x="251" 
d="M185 0h-120v443q0 1 -2.5 13t-5.5 26t-3 15h131v-497zM309 755l-151 -165h-103l109 165h145z" />
    <glyph glyph-name="icircumflex" unicode="&#xee;" horiz-adv-x="251" 
d="M271 588h-78l-70 74l-69 -74h-76l96 145h98zM185 0h-120v443q0 1 -2.5 13t-5.5 26t-3 15h131v-497z" />
    <glyph glyph-name="idieresis" unicode="&#xef;" horiz-adv-x="251" 
d="M185 0h-120v443q0 1 -2.5 13t-5.5 26t-3 15h131v-497zM205 573q-23 0 -40 17t-17 40t17 40t40 17q24 0 41 -16.5t17 -40.5t-17 -40.5t-41 -16.5zM84 673q18 -18 18 -43t-17.5 -43t-43.5 -18t-43.5 18t-17.5 43t17.5 43t43.5 18t43 -18z" />
    <glyph glyph-name="eth" unicode="&#xf0;" horiz-adv-x="536" 
d="M414 723l-91 -51q187 -225 187 -423q0 -111 -66 -185.5t-176 -74.5t-176 74.5t-66 185.5q0 110 66.5 185.5t175.5 75.5q12 0 32 -2q-36 64 -72 111l-93 -51l-45 58l92 51q-18 20 -52 54l88 52q17 -16 56 -55l100 55zM268 72q110 0 110 176q0 32 -4.5 60t-15 57t-34 46
t-56.5 17q-42 0 -68.5 -32t-34 -69t-7.5 -79t7.5 -78t34 -67t68.5 -31z" />
    <glyph glyph-name="ntilde" unicode="&#xf1;" horiz-adv-x="547" 
d="M463 688q0 -50 -28.5 -83.5t-77.5 -33.5q-30 0 -71.5 20t-58.5 20q-15 0 -27.5 -8t-12.5 -22h-65q0 50 28.5 83.5t77.5 33.5q30 0 71.5 -20t58.5 -20q14 0 27 8t14 22h64zM486 0h-121v324q0 28 -3 45.5t-18 32t-42 14.5q-22 0 -56.5 -18.5t-51.5 -36.5v-361h-120v356
q0 100 -31 137l126 15q12 -26 17 -64q74 67 152 67q81 0 114.5 -45t33.5 -130v-336z" />
    <glyph glyph-name="ograve" unicode="&#xf2;" horiz-adv-x="536" 
d="M26 249q0 110 66.5 185.5t175.5 75.5q110 0 176 -75t66 -186t-66 -186t-176 -75t-176 75t-66 186zM268 428q-42 0 -68.5 -32t-34 -69t-7.5 -79t7.5 -79t34 -69t68.5 -32q33 0 56.5 17t34 46t15 57t4.5 60t-4.5 60t-15 57t-34 46t-56.5 17zM325 590h-103l-151 165h145z
" />
    <glyph glyph-name="oacute" unicode="&#xf3;" horiz-adv-x="536" 
d="M474 755l-151 -165h-103l109 165h145zM26 249q0 110 66.5 185.5t175.5 75.5q110 0 176 -75t66 -186t-66 -186t-176 -75t-176 75t-66 186zM268 428q-42 0 -68.5 -32t-34 -69t-7.5 -79t7.5 -79t34 -69t68.5 -32q33 0 56.5 17t34 46t15 57t4.5 60t-4.5 60t-15 57t-34 46
t-56.5 17z" />
    <glyph glyph-name="ocircumflex" unicode="&#xf4;" horiz-adv-x="536" 
d="M413 588h-78l-70 74l-69 -74h-76l96 145h98zM26 249q0 110 66.5 185.5t175.5 75.5q110 0 176 -75t66 -186t-66 -186t-176 -75t-176 75t-66 186zM268 428q-42 0 -68.5 -32t-34 -69t-7.5 -79t7.5 -79t34 -69t68.5 -32q33 0 56.5 17t34 46t15 57t4.5 60t-4.5 60t-15 57
t-34 46t-56.5 17z" />
    <glyph glyph-name="otilde" unicode="&#xf5;" horiz-adv-x="536" 
d="M447 682q0 -50 -28.5 -83.5t-77.5 -33.5q-30 0 -71.5 20t-58.5 20q-15 0 -27.5 -8t-12.5 -22h-65q0 50 28.5 83.5t77.5 33.5q30 0 71.5 -20t58.5 -20q14 0 27 8t14 22h64zM26 249q0 110 66.5 185.5t175.5 75.5q110 0 176 -75t66 -186t-66 -186t-176 -75t-176 75t-66 186z
M268 428q-42 0 -68.5 -32t-34 -69t-7.5 -79t7.5 -79t34 -69t68.5 -32q33 0 56.5 17t34 46t15 57t4.5 60t-4.5 60t-15 57t-34 46t-56.5 17z" />
    <glyph glyph-name="odieresis" unicode="&#xf6;" horiz-adv-x="536" 
d="M346 572q-23 0 -40 17t-17 40t17 40t40 17q24 0 41 -16.5t17 -40.5t-17 -40.5t-41 -16.5zM225 672q18 -18 18 -43t-17.5 -43t-43.5 -18t-43.5 18t-17.5 43t17.5 43t43.5 18t43 -18zM26 249q0 110 66.5 185.5t175.5 75.5q110 0 176 -75t66 -186t-66 -186t-176 -75t-176 75
t-66 186zM268 428q-42 0 -68.5 -32t-34 -69t-7.5 -79t7.5 -79t34 -69t68.5 -32q33 0 56.5 17t34 46t15 57t4.5 60t-4.5 60t-15 57t-34 46t-56.5 17z" />
    <glyph glyph-name="divide" unicode="&#xf7;" horiz-adv-x="630" 
d="M564 204h-496v88h496v-88zM370 121q23 -23 23 -55t-22.5 -54.5t-54.5 -22.5t-54.5 22.5t-22.5 54.5t22.5 55t54.5 23t54 -23zM369 486q23 -23 23 -55t-22.5 -54.5t-54.5 -22.5t-54.5 22.5t-22.5 54.5t22.5 55t54.5 23t54 -23z" />
    <glyph glyph-name="oslash" unicode="&#xf8;" horiz-adv-x="537" 
d="M511 249q0 -112 -66 -186.5t-176 -74.5q-65 0 -115 27l-65 -106l-45 34l64 104q-82 75 -82 202q0 111 66.5 186t176.5 75q61 0 111 -25l54 86l49 -26l-57 -91q85 -75 85 -205zM331 405q-24 23 -62 23q-42 0 -68.5 -32t-34 -69t-7.5 -79q0 -56 13 -98zM378 248
q0 63 -14 105l-160 -258q27 -27 65 -27q33 0 56 17t33.5 46t15 57t4.5 60z" />
    <glyph glyph-name="ugrave" unicode="&#xf9;" horiz-adv-x="553" 
d="M574 19q-7 -2 -35 -10.5t-46.5 -12.5t-35.5 -4q-30 0 -51 18.5t-27 48.5q-71 -73 -164 -73q-82 0 -115.5 45.5t-33.5 129.5v282l-11 54h133v-315q0 -100 65 -100q44 0 75 27t31 70v264q0 1 -3 13t-6 25.5t-3 15.5h134v-365q0 -52 25 -52q2 0 47 12zM321 590h-103
l-151 165h145z" />
    <glyph glyph-name="uacute" unicode="&#xfa;" horiz-adv-x="553" 
d="M471 755l-151 -165h-103l109 165h145zM574 19q-7 -2 -35 -10.5t-46.5 -12.5t-35.5 -4q-30 0 -51 18.5t-27 48.5q-71 -73 -164 -73q-82 0 -115.5 45.5t-33.5 129.5v282l-11 54h133v-315q0 -100 65 -100q44 0 75 27t31 70v264q0 1 -3 13t-6 25.5t-3 15.5h134v-365
q0 -52 25 -52q2 0 47 12z" />
    <glyph glyph-name="ucircumflex" unicode="&#xfb;" horiz-adv-x="553" 
d="M417 589h-78l-70 74l-69 -74h-76l96 145h98zM574 19q-7 -2 -35 -10.5t-46.5 -12.5t-35.5 -4q-30 0 -51 18.5t-27 48.5q-71 -73 -164 -73q-82 0 -115.5 45.5t-33.5 129.5v282l-11 54h133v-315q0 -100 65 -100q44 0 75 27t31 70v264q0 1 -3 13t-6 25.5t-3 15.5h134v-365
q0 -52 25 -52q2 0 47 12z" />
    <glyph glyph-name="udieresis" unicode="&#xfc;" horiz-adv-x="553" 
d="M356 576q-23 0 -40 17t-17 40t17 40t40 17q24 0 41 -16.5t17 -40.5t-17 -40.5t-41 -16.5zM235 676q18 -18 18 -43t-17.5 -43t-43.5 -18t-43.5 18t-17.5 43t17.5 43t43.5 18t43 -18zM574 19q-7 -2 -35 -10.5t-46.5 -12.5t-35.5 -4q-30 0 -51 18.5t-27 48.5
q-71 -73 -164 -73q-82 0 -115.5 45.5t-33.5 129.5v282l-11 54h133v-315q0 -100 65 -100q44 0 75 27t31 70v264q0 1 -3 13t-6 25.5t-3 15.5h134v-365q0 -52 25 -52q2 0 47 12z" />
    <glyph glyph-name="yacute" unicode="&#xfd;" horiz-adv-x="456" 
d="M443 755l-151 -165h-103l109 165h145zM458 497l-177 -500q-76 -218 -217 -218h-37v85q12 -3 26 -3q27 0 48.5 12.5t36 36.5t23 43.5t17.5 47.5l-180 496h129q7 -21 43 -121.5t54 -154.5q4 -13 8.5 -40.5t5.5 -34.5q11 64 14 75l96 276h110z" />
    <glyph glyph-name="thorn" unicode="&#xfe;" horiz-adv-x="558" 
d="M188 768v-311q60 51 139 51q64 0 111.5 -40t69.5 -97.5t22 -119.5q0 -110 -63.5 -186.5t-171.5 -76.5q-62 0 -107 30v-235h-120v932q-1 4 -6 29l-5 24h131zM188 368v-163q0 -57 25 -96t79 -39q40 0 65.5 31.5t33.5 68t8 75.5q0 38 -10 74.5t-37 66.5t-66 30
q-55 0 -98 -48z" />
    <glyph glyph-name="ydieresis" unicode="&#xff;" horiz-adv-x="456" 
d="M325 578q-23 0 -40 17t-17 40t17 40t40 17q24 0 41 -16.5t17 -40.5t-17 -40.5t-41 -16.5zM204 678q18 -18 18 -43t-17.5 -43t-43.5 -18t-43.5 18t-17.5 43t17.5 43t43.5 18t43 -18zM458 497l-177 -500q-76 -218 -217 -218h-37v85q12 -3 26 -3q27 0 48.5 12.5t36 36.5
t23 43.5t17.5 47.5l-180 496h129q7 -21 43 -121.5t54 -154.5q4 -13 8.5 -40.5t5.5 -34.5q11 64 14 75l96 276h110z" />
    <glyph glyph-name="dotlessi" unicode="&#x131;" horiz-adv-x="251" 
d="M185 0h-120v443q0 1 -2.5 13t-5.5 26t-3 15h131v-497z" />
    <glyph glyph-name="Lslash" unicode="&#x141;" horiz-adv-x="492" 
d="M492 0h-426v245l-65 -30v97l65 30v330q-1 4 -7 32l-6 28h152v-326l197 92v-98l-197 -91v-210h287v-99z" />
    <glyph glyph-name="lslash" unicode="&#x142;" horiz-adv-x="251" 
d="M185 0h-122v274l-60 -28v97l60 28v344q-1 4 -6 29l-5 24h133v-340l64 30v-98l-64 -30v-330z" />
    <glyph glyph-name="OE" unicode="&#x152;" horiz-adv-x="1055" 
d="M1030 0h-445v54q-89 -65 -212 -65q-163 0 -256 106t-93 271q0 166 93 271.5t256 105.5q125 0 212 -63v52h445v-99h-308v-207h236v-99h-236v-228h308v-99zM373 88q55 0 96 24.5t63 66t32.5 88.5t10.5 99q0 53 -10 99t-31.5 88t-62.5 66.5t-98 24.5q-55 0 -96 -24.5
t-63 -66.5t-32.5 -88.5t-10.5 -98.5q0 -53 10 -99.5t32 -88t63 -66t97 -24.5z" />
    <glyph glyph-name="oe" unicode="&#x153;" horiz-adv-x="848" 
d="M756 125l51 -83q-31 -26 -81.5 -39.5t-96.5 -13.5q-118 0 -186 73q-65 -73 -174 -73q-110 0 -176 74.5t-66 185.5q0 110 66.5 185.5t175.5 75.5t175 -74q64 75 168 75q98 0 152.5 -59t54.5 -158q0 -60 -51 -60h-262q0 -64 33.5 -113t95.5 -49q31 0 64.5 15t56.5 38z
M269 72q110 0 110 176q0 32 -4.5 60t-15 57t-34 46t-56.5 17q-42 0 -68.5 -32t-34 -69t-7.5 -79t7.5 -78t34 -67t68.5 -31zM509 313h168q17 0 17 22q0 41 -21 67.5t-60 26.5q-40 0 -71 -37t-33 -79z" />
    <glyph glyph-name="Scaron" unicode="&#x160;" horiz-adv-x="516" 
d="M497 197q0 -97 -75 -153t-183 -56q-136 0 -235 53l47 110q79 -67 175 -67q51 0 88 24.5t37 65.5q0 37 -33.5 64.5t-80.5 47t-94.5 42t-81 64t-33.5 99.5q0 94 71.5 143t191.5 49q46 0 104 -15.5t90 -39.5l-69 -87q-57 46 -138 46q-43 0 -73.5 -18.5t-30.5 -51.5
q0 -36 33.5 -62t81 -45.5t94.5 -43t80.5 -66.5t33.5 -103zM404 861l-96 -145h-98l-99 145h78l70 -74l69 74h76z" />
    <glyph glyph-name="scaron" unicode="&#x161;" horiz-adv-x="430" 
d="M361 736l-96 -145h-98l-99 145h78l70 -74l69 74h76zM393 155q0 -77 -58 -123t-137 -46q-88 0 -166 43l43 82q68 -40 113 -40q32 0 53.5 16.5t21.5 47.5q0 27 -22.5 45t-54.5 29t-64.5 25.5t-55 44.5t-22.5 75q0 75 57.5 115.5t134.5 40.5q85 0 147 -31l-42 -84
q-44 34 -99 34q-28 0 -48 -13.5t-20 -39.5q0 -25 22.5 -41t55 -27.5t64.5 -26.5t54.5 -46.5t22.5 -79.5z" />
    <glyph glyph-name="Ydieresis" unicode="&#x178;" horiz-adv-x="584" 
d="M574 674l-217 -400v-274h-133v274l-214 400h148l146 -273l150 273h120zM386 735q-23 0 -40 17t-17 40t17 40t40 17q24 0 41 -16.5t17 -40.5t-17 -40.5t-41 -16.5zM266 832q17 -16 17 -40t-16.5 -40.5t-40.5 -16.5t-40.5 16.5t-16.5 40.5t16.5 40.5t40.5 16.5t40 -17z" />
    <glyph glyph-name="Zcaron" unicode="&#x17d;" horiz-adv-x="571" 
d="M558 99l-12 -99h-533v82l351 494h-327v98h503v-73l-358 -502h376zM447 861l-96 -145h-98l-99 145h78l70 -74l69 74h76z" />
    <glyph glyph-name="zcaron" unicode="&#x17e;" horiz-adv-x="445" 
d="M386 736l-96 -145h-98l-99 145h78l70 -74l69 74h76zM428 83l-14 -83h-397v61l234 353h-209v83h372v-62l-237 -352h251z" />
    <glyph glyph-name="florin" unicode="&#x192;" horiz-adv-x="297" 
d="M426 706l-34 -70q-40 25 -76 25q-73 0 -101 -164h144l-25 -80h-131q-36 -239 -72 -416q-18 -88 -65.5 -141.5t-130.5 -53.5q-22 0 -49 5l23 78h9q31 0 53 19t28 53l82 456h-75v70q81 2 98 45q4 9 19 57.5t31 72.5q53 81 166 81q56 0 106 -37z" />
    <glyph glyph-name="circumflex" unicode="&#x2c6;" horiz-adv-x="275" 
d="M285 588h-78l-70 74l-69 -74h-76l96 145h98z" />
    <glyph glyph-name="caron" unicode="&#x2c7;" horiz-adv-x="275" 
d="M285 733l-96 -145h-98l-99 145h78l70 -74l69 74h76z" />
    <glyph glyph-name="breve" unicode="&#x2d8;" horiz-adv-x="276" 
d="M289 732q-10 -77 -44 -118.5t-107 -41.5q-70 0 -107 43.5t-43 116.5h67q9 -36 28 -53t55 -17q66 0 82 70h69z" />
    <glyph glyph-name="dotaccent" unicode="&#x2d9;" horiz-adv-x="285" 
d="M187 668q18 -18 18 -43t-17.5 -43t-43.5 -18t-43.5 18t-17.5 43t17.5 43t43.5 18t43 -18z" />
    <glyph glyph-name="ring" unicode="&#x2da;" horiz-adv-x="281" 
d="M217 713q32 -31 32 -75t-32 -75.5t-76 -31.5t-75.5 31.5t-31.5 75.5t31.5 75.5t75.5 31.5t76 -32zM111 666q-11 -12 -11 -29t11.5 -28.5t28.5 -11.5t29 11.5t12 28.5t-12 29t-29 12t-29 -12z" />
    <glyph glyph-name="ogonek" unicode="&#x2db;" horiz-adv-x="279" 
d="M274 -154q-71 -57 -142 -57q-46 0 -75 24t-29 69q0 38 35.5 72t78.5 53.5t81 25.5l35 -19q-4 -2 -28 -15t-37 -21t-31 -22t-27 -28.5t-9 -29.5q0 -38 42 -38q25 0 83 36z" />
    <glyph glyph-name="tilde" unicode="&#x2dc;" horiz-adv-x="353" 
d="M349 682q0 -50 -28.5 -83.5t-77.5 -33.5q-30 0 -71.5 20t-58.5 20q-15 0 -27.5 -8t-12.5 -22h-65q0 50 28.5 83.5t77.5 33.5q30 0 71.5 -20t58.5 -20q14 0 27 8t14 22h64z" />
    <glyph glyph-name="hungarumlaut" unicode="&#x2dd;" horiz-adv-x="405" 
d="M371 732l-111 -142h-93l69 142h135zM214 732l-111 -142h-93l69 142h135z" />
    <glyph glyph-name="pi" unicode="&#x3c0;" horiz-adv-x="669" 
d="M583 98l32 -67q-41 -41 -108 -41q-69 0 -102.5 53t-33.5 127q0 165 53 237h-131v-27q0 -40 -0.5 -62t-2.5 -60t-6.5 -62t-12.5 -56t-21.5 -54.5t-31.5 -46t-43.5 -40.5t-57.5 -29l-37 55q41 26 65.5 67.5t24.5 88.5v190q0 1 7 36h-12q-31 0 -54 -24t-29 -57l-67 18
q7 73 53.5 113t120.5 40h328q34 0 53 4.5t50 18.5l34 -58q-20 -28 -51 -39t-77 -16q-39 -136 -39 -236q0 -34 13.5 -57.5t44.5 -23.5q19 0 38 8z" />
    <glyph glyph-name="endash" unicode="&#x2013;" horiz-adv-x="502" 
d="M489 211h-476v94h476v-94z" />
    <glyph glyph-name="emdash" unicode="&#x2014;" horiz-adv-x="852" 
d="M839 211h-826v94h826v-94z" />
    <glyph glyph-name="quoteleft" unicode="&#x2018;" horiz-adv-x="286" 
d="M218 536q0 -29 -20 -49.5t-49 -20.5q-37 0 -59 27.5t-22 65.5q0 101 109 180q27 -27 39 -41q-15 -14 -30.5 -36.5t-15.5 -36.5q0 -10 12 -21t24 -27.5t12 -40.5z" />
    <glyph glyph-name="quoteright" unicode="&#x2019;" horiz-adv-x="286" 
d="M228 652q0 -100 -109 -180q-27 27 -39 41q46 46 46 73q0 10 -12 21t-24 27.5t-12 40.5q0 30 19.5 50t49.5 20q37 0 59 -27.5t22 -65.5z" />
    <glyph glyph-name="quotesinglbase" unicode="&#x201a;" horiz-adv-x="276" 
d="M220 46q0 -101 -109 -180q-27 27 -39 41q15 14 30.5 36.5t15.5 36.5q0 10 -12 21t-24 27.5t-12 40.5q0 29 20 49.5t49 20.5q37 0 59 -27.5t22 -65.5z" />
    <glyph glyph-name="quotedblleft" unicode="&#x201c;" horiz-adv-x="487" 
d="M216 536q0 -29 -20 -49.5t-49 -20.5q-37 0 -59 27.5t-22 65.5q0 101 109 180q27 -27 39 -41q-15 -14 -30.5 -36.5t-15.5 -36.5q0 -10 12 -21t24 -27.5t12 -40.5zM418 536q0 -29 -20 -49.5t-49 -20.5q-37 0 -59 27.5t-22 65.5q0 101 109 180q27 -27 39 -41
q-15 -14 -30.5 -36.5t-15.5 -36.5q0 -10 12 -21t24 -27.5t12 -40.5z" />
    <glyph glyph-name="quotedblright" unicode="&#x201d;" horiz-adv-x="487" 
d="M228 652q0 -100 -109 -180q-27 27 -39 41q46 46 46 73q0 10 -12 21t-24 27.5t-12 40.5q0 30 19.5 50t49.5 20q37 0 59 -27.5t22 -65.5zM430 652q0 -100 -109 -180q-27 27 -39 41q46 46 46 73q0 10 -12 21t-24 27.5t-12 40.5q0 30 19.5 50t49.5 20q37 0 59 -27.5t22 -65.5
z" />
    <glyph glyph-name="quotedblbase" unicode="&#x201e;" horiz-adv-x="477" 
d="M213 46q0 -101 -109 -180q-27 27 -39 41q15 14 30.5 36.5t15.5 36.5q0 10 -12 21t-24 27.5t-12 40.5q0 29 20 49.5t49 20.5q37 0 59 -27.5t22 -65.5zM415 46q0 -101 -109 -180q-27 27 -39 41q15 14 30.5 36.5t15.5 36.5q0 10 -12 21t-24 27.5t-12 40.5q0 29 20 49.5
t49 20.5q37 0 59 -27.5t22 -65.5z" />
    <glyph glyph-name="dagger" unicode="&#x2020;" horiz-adv-x="523" 
d="M482 481l-64 -51l-119 22l26 -143l-34 -447h-46l-37 447l25 143l-116 -22l-66 55l66 54l116 -25l-26 144l57 82l62 -82l-27 -144l119 25z" />
    <glyph glyph-name="daggerdbl" unicode="&#x2021;" horiz-adv-x="523" 
d="M477 112l-67 -54l-112 25l23 -144l-56 -78l-63 78l26 144l-116 -25l-66 59l66 48l117 -20l-26 164l25 143l-116 -22l-66 55l66 54l116 -25l-26 144l57 82l62 -82l-27 -144l119 25l64 -58l-64 -51l-119 22l27 -143l-24 -164l113 20z" />
    <glyph glyph-name="bullet" unicode="&#x2022;" horiz-adv-x="441" 
d="M331 467q46 -45 46 -110t-45 -110.5t-110 -45.5t-111 45.5t-46 110.5t45.5 110.5t110.5 45.5t110 -46z" />
    <glyph glyph-name="ellipsis" unicode="&#x2026;" horiz-adv-x="825" 
d="M221 120q23 -23 23 -55t-22.5 -54.5t-54.5 -22.5t-54.5 22.5t-22.5 54.5t22.5 55t54.5 23t54 -23zM468 120q23 -23 23 -55t-22.5 -54.5t-54.5 -22.5t-54.5 22.5t-22.5 54.5t22.5 55t54.5 23t54 -23zM716 120q23 -23 23 -55t-22.5 -54.5t-54.5 -22.5t-54.5 22.5
t-22.5 54.5t22.5 55t54.5 23t54 -23z" />
    <glyph glyph-name="perthousand" unicode="&#x2030;" horiz-adv-x="1148" 
d="M1126 348q45 -57 45 -147t-44.5 -147.5t-132.5 -57.5t-132.5 57.5t-44.5 147.5t44.5 147t132.5 57t132 -57zM740 348q45 -57 45 -147t-44.5 -147.5t-132.5 -57.5t-132.5 57.5t-44.5 147.5t44.5 147t132.5 57t132 -57zM611 699l-347 -712h-67l323 658h-170q37 -55 37 -136
q0 -90 -45 -147.5t-132 -57.5q-88 0 -132.5 57.5t-44.5 147.5t44.5 147t132.5 57q42 0 74 -14h327zM1062 201q0 125 -68 125t-68 -125q0 -126 68 -126t68 126zM676 201q0 125 -68 125t-68 -125q0 -126 68 -126t68 126zM278 509q0 125 -68 125t-68 -125q0 -126 68 -126
t68 126z" />
    <glyph glyph-name="guilsinglleft" unicode="&#x2039;" horiz-adv-x="298" 
d="M265 173l-76 -11l-156 170l152 172l77 -14l-119 -158z" />
    <glyph glyph-name="guilsinglright" unicode="&#x203a;" horiz-adv-x="329" 
d="M280 332l-156 -170l-75 11l122 159l-120 158l77 14z" />
    <glyph glyph-name="fraction" unicode="&#x2044;" horiz-adv-x="132" 
d="M251 732l-270 -732h-93l269 732h94z" />
    <glyph glyph-name="Euro" unicode="&#x20ac;" horiz-adv-x="513" 
d="M452 106l31 -86q-62 -31 -138 -31q-103 0 -166 52t-82 141h-87l11 47h69q-1 10 -1 30q0 21 1 32h-55l9 47h54q22 85 86.5 135t161.5 50q70 0 127 -23l-21 -93q-44 32 -103 32q-101 0 -123 -101h211l-11 -47h-207v-29q0 -22 1 -33h193l-11 -47h-173q29 -108 122 -108
q57 0 101 32z" />
    <glyph glyph-name="trademark" unicode="&#x2122;" horiz-adv-x="568" 
d="M513 497h-59v128l-51 -128h-36q-27 67 -52 134v-134h-52v236h74l52 -137l51 136h73v-235zM251 686h-72v-189h-60v189h-71v47h203v-47z" />
    <glyph glyph-name="Omega" unicode="&#x2126;" horiz-adv-x="781" 
d="M751 0h-295v76q70 26 102 102.5t32 170.5q0 53 -10 101.5t-31.5 93.5t-62 72.5t-95.5 27.5t-96 -27.5t-62.5 -72.5t-31.5 -94t-10 -101q0 -94 32 -170.5t102 -102.5v-76h-295v99h67l72 -6q-55 33 -90 111.5t-35 162.5q0 166 92 271t255 105t254.5 -105t91.5 -271
q0 -84 -35 -162.5t-90 -111.5l72 6h67v-99z" />
    <glyph glyph-name="partialdiff" unicode="&#x2202;" horiz-adv-x="555" 
d="M372 385q-1 38 -9 77.5t-25 80.5t-50 67t-76 26q-32 0 -60.5 -10t-41.5 -20l-12 -10q-49 75 -50 75q2 3 7 8t22.5 17t37.5 21.5t54 17.5t71 8q141 0 212 -109.5t71 -299.5q0 -82 -20 -145.5t-50 -100t-68.5 -60t-71 -31.5t-63.5 -8q-34 0 -68.5 10t-70 32.5t-57.5 67.5
t-22 107q0 49 16.5 88t41.5 62.5t56 39t58 21.5t51 6q25 0 47.5 -5.5t33 -10.5t23.5 -13zM370 293q-32 32 -90 32q-34 0 -58.5 -16t-35.5 -40t-16 -42.5t-5 -30.5q0 -13 2 -25t9 -34t27 -35.5t50 -13.5q35 0 60 27t36.5 65.5t16 67t4.5 45.5z" />
    <glyph glyph-name="Delta" unicode="&#x2206;" horiz-adv-x="631" 
d="M629 0h-627v67l259 665h109l259 -665v-67zM130 99h338q-90 234 -144 388q-7 19 -15.5 58.5t-8.5 40.5q-1 -4 -5.5 -23.5t-10 -41t-10.5 -35.5q-80 -224 -144 -387z" />
    <glyph glyph-name="product" unicode="&#x220f;" horiz-adv-x="833" 
d="M708 -229h-143v862h-299v-862h-143v862h-105v99h797v-99h-107v-862z" />
    <glyph glyph-name="summation" unicode="&#x2211;" horiz-adv-x="726" 
d="M686 -229h-646v130l286 376l-286 356v99h636v-99h-473q47 -47 52 -53l219 -270l-266 -351q-7 -9 -49 -51h527v-137z" />
    <glyph glyph-name="minus" unicode="&#x2212;" horiz-adv-x="636" 
d="M566 205h-496v88h496v-88z" />
    <glyph glyph-name="radical" unicode="&#x221a;" horiz-adv-x="605" 
d="M307 -230h-116l-148 436l-94 -30l-27 81l200 67l134 -402l313 1046h98z" />
    <glyph glyph-name="infinity" unicode="&#x221e;" horiz-adv-x="812" 
d="M406 181q-42 -49 -82.5 -78t-88.5 -29q-76 0 -120.5 49t-44.5 126t44.5 126t120.5 49q48 0 88.5 -29t82.5 -78q42 49 82.5 78t88.5 29q76 0 120.5 -49t44.5 -126t-44.5 -126t-120.5 -49q-48 0 -88.5 29t-82.5 78zM466 249q61 -65 112 -65q31 0 48 17.5t17 47.5t-17 47.5
t-48 17.5q-51 0 -112 -65zM346 249q-61 65 -112 65q-31 0 -48 -17.5t-17 -47.5t17 -47.5t48 -17.5q51 0 112 65z" />
    <glyph glyph-name="integral" unicode="&#x222b;" horiz-adv-x="256" 
d="M-23 -227v80q48 0 74 32.5t26 80.5v559q0 111 45.5 164t159.5 53v-80q-83 0 -83 -113v-559q0 -111 -52.5 -164t-169.5 -53z" />
    <glyph glyph-name="approxequal" unicode="&#x2248;" horiz-adv-x="657" 
d="M513 417l70 -45q-22 -42 -60.5 -72t-81.5 -30q-49 0 -121 35t-95 35q-42 0 -81 -59l-70 45q22 42 60.5 72t81.5 30q49 0 121 -35t95 -35q42 0 81 59zM513 226l70 -45q-22 -42 -60.5 -72t-81.5 -30q-49 0 -121 35t-95 35q-42 0 -81 -59l-70 45q22 42 60.5 72t81.5 30
q49 0 121 -35t95 -35q42 0 81 59z" />
    <glyph glyph-name="notequal" unicode="&#x2260;" horiz-adv-x="0" 
d="M565 109h-271l-51 -109h-95l51 109h-132v88h173l48 105h-221v88h262l50 107h98l-50 -107h138v-88h-180l-49 -105h229v-88z" />
    <glyph glyph-name="lessequal" unicode="&#x2264;" horiz-adv-x="630" 
d="M564 106l-498 177v52l498 176v-90l-258 -91q-43 -16 -106 -21q53 -2 104 -19l260 -92v-92zM565 1h-496v88h496v-88z" />
    <glyph glyph-name="greaterequal" unicode="&#x2265;" horiz-adv-x="630" 
d="M565 283l-499 -177v92l260 92q52 18 105 19q-62 5 -107 21l-258 91v90l499 -176v-52zM563 1h-496v88h496v-88z" />
    <glyph glyph-name="lozenge" unicode="&#x25ca;" horiz-adv-x="504" 
d="M273 -14h-42l-206 376l206 377h42l206 -377zM254 101l136 261l-136 262h-4l-137 -262l137 -261h4z" />
    <glyph glyph-name="fi" unicode="&#xfb01;" horiz-adv-x="551" 
d="M506 630l-113 -30q-5 41 -29.5 67.5t-50.5 26.5q-62 0 -83.5 -49.5t-23.5 -147.5h297v-497h-120v417h-177v-417h-121v417h-82v69q21 0 36.5 5.5t24.5 11t16.5 20t9.5 21.5t6.5 26.5t5.5 25.5q22 87 72 133t140 46q137 0 192 -145z" />
    <glyph glyph-name="fl" unicode="&#xfb02;" horiz-adv-x="566" 
d="M504 0h-122v616q0 31 -20 54.5t-56 23.5q-101 0 -101 -191v-6h122l-23 -80h-99v-417h-120v417h-82v69q47 0 66 25.5t33 84.5q21 88 66 133t140 45q43 0 99 -29l97 34v-779z" />
    </font>
</defs>
</svg>
